/* XPM */
static char *pumpkin4[] = {
/* columns rows colors chars-per-pixel */
"32 32 201 2 ",
"   c #3F0404",
".  c #420504",
"X  c #4C0603",
"o  c #4E0A05",
"O  c #530C05",
"+  c #5E0D05",
"@  c #56160B",
"#  c #650C03",
"$  c #6D0F05",
"%  c #6C1A06",
"&  c #641507",
"*  c #721C09",
"=  c #761E07",
"-  c #522511",
";  c #552D19",
":  c #72210A",
">  c #7E4826",
",  c #62553B",
"<  c #7B5031",
"1  c #6A5C44",
"2  c #675B40",
"3  c #6E6246",
"4  c #71664D",
"5  c #796F4F",
"6  c #756849",
"7  c #7B7255",
"8  c #832406",
"9  c #8B2E0B",
"0  c #8D2206",
"q  c #962604",
"w  c #8B350C",
"e  c #9C360C",
"r  c #9B3C0C",
"t  c #91360D",
"y  c #873E17",
"u  c #A63C0E",
"i  c #AC3D0B",
"p  c #BA3C05",
"a  c #9C440E",
"s  c #934317",
"d  c #9D521F",
"f  c #AE430C",
"g  c #A9470D",
"h  c #B3450B",
"j  c #B44B0E",
"k  c #BD4A0B",
"l  c #BD4609",
"z  c #BC520E",
"x  c #A54912",
"c  c #AD4B13",
"v  c #A44A18",
"b  c #B24D12",
"n  c #A75117",
"m  c #A75118",
"M  c #AC531B",
"N  c #AC591F",
"B  c #B55214",
"V  c #BC5314",
"C  c #B1561A",
"Z  c #B9591A",
"A  c #B95918",
"S  c #8A572F",
"D  c #9B5B33",
"F  c #AA5923",
"G  c #AB5D2E",
"H  c #AA5721",
"J  c #B95C22",
"K  c #A65D30",
"L  c #82623D",
"P  c #AD622F",
"I  c #BE6529",
"U  c #B4622A",
"Y  c #AF6A37",
"T  c #B26D3F",
"R  c #BC733B",
"E  c #BC7137",
"W  c #C34B0A",
"Q  c #CA4D0A",
"!  c #C94A07",
"~  c #C3530D",
"^  c #CC530B",
"/  c #CE5A0E",
"(  c #D2520A",
")  c #DA570B",
"_  c #D45B0D",
"`  c #DA5D0E",
"'  c #D25107",
"]  c #C35515",
"[  c #CA5D14",
"{  c #C45B19",
"}  c #C95F18",
"|  c #C45817",
" . c #D35F11",
".. c #E15C0A",
"X. c #DC630D",
"o. c #DF700E",
"O. c #C16010",
"+. c #CD6217",
"@. c #CD6914",
"#. c #C06718",
"$. c #CD661D",
"%. c #CE681D",
"&. c #D36314",
"*. c #DD6511",
"=. c #D36C16",
"-. c #DC6A14",
";. c #D66B1A",
":. c #D3671A",
">. c #D4731C",
",. c #DD731C",
"<. c #DF7F1C",
"1. c #DA7316",
"2. c #E4640D",
"3. c #EA670D",
"4. c #E66A0D",
"5. c #ED6C0C",
"6. c #F06E0D",
"7. c #EB710D",
"8. c #F3740D",
"9. c #F8760D",
"0. c #F97C0D",
"q. c #E26611",
"w. c #E26E13",
"e. c #EB6D12",
"r. c #E47414",
"t. c #ED7211",
"y. c #E47F1C",
"u. c #F37614",
"i. c #F47A12",
"p. c #F87E13",
"a. c #C25E21",
"s. c #C46523",
"d. c #CB6A22",
"f. c #C36B2C",
"g. c #C76A24",
"h. c #D36F20",
"j. c #C9722A",
"k. c #D27223",
"l. c #DD7522",
"z. c #DA7626",
"x. c #C16C32",
"c. c #C27A3E",
"v. c #CB7634",
"b. c #D67E33",
"n. c #957245",
"m. c #837959",
"M. c #B27243",
"N. c #B47A4B",
"B. c #BA7F50",
"V. c #FB850D",
"C. c #FC8A0E",
"Z. c #FC910F",
"A. c #E7841C",
"S. c #F98512",
"D. c #FB8C14",
"F. c #F9831B",
"G. c #FB8C1B",
"H. c #F3891A",
"J. c #FC9313",
"K. c #FC9A14",
"L. c #FC941C",
"P. c #FC9A1C",
"I. c #F2901A",
"U. c #FBA51A",
"Y. c #DD8328",
"T. c #CB883E",
"R. c #D68434",
"E. c #E68821",
"W. c #ED8826",
"Q. c #F98B22",
"!. c #F58B29",
"~. c #E9952A",
"^. c #FB9424",
"/. c #FC9A22",
"(. c #F39F29",
"). c #FB9B2B",
"_. c #F69923",
"`. c #E88532",
"'. c #FC9F32",
"]. c #F29131",
"[. c #FCAA2A",
"{. c #FCA529",
"}. c #FCA333",
"|. c #FCAC3D",
" X c #F9AA35",
".X c #FCB33C",
"XX c #8F8664",
"oX c #A9A17C",
"OX c #CF8241",
"+X c #DF8741",
"@X c #DB9346",
"#X c #DE9552",
"$X c #F6A247",
"%X c #F8A648",
"&X c #F9AB4A",
"*X c #F7A84C",
"=X c #FBB243",
"-X c #EEA35D",
";X c #F8B558",
":X c #EEA867",
">X c None",
/* pixels */
">X>X>X>X>X>X>X>X>X>X>X>X>X>X>X>X>X>X>X>X>X>X>X>X>X>X>X>X>X>X>X>X",
">X>X>X>X>X>X>X>X>X>X>X>X>X7 oX>X>X>X>X>X>X>X>X>X>X>X>X>X>X>X>X>X",
">X>X>X>X>X>X>X>X>X>X>X>X>X>XXXm.>X>X>X>X>X>X>X>X>X>X>X>X>X>X>X>X",
">X>X>X>X>X>X>X>X>X>X>X>X>X>X6 5 >X>X>X>X>X>X>X>X>X>X>X>X>X>X>X>X",
">X>X>X>X>X>X>X>X>X>X>X>X>X>X1 m.4 >X>X>X>X>X>X>X>X>X>X>X>X>X>X>X",
">X>X>X>X>X>X>X>X>X>X>X>X>X>X, 4 2 >X>X>X>X>X>X>X>X>X>X>X>X>X>X>X",
">X>X>X>X>X>X>X>X>X>X>X>X>X>X1 3 , >X>X>X>X>X>X>X>X>X>X>X>X>X>X>X",
">X>X>X>X>X>X>X>X>X>X-X:X#XN.L n.S T.$X%X*X%X&X;X>X>X>X>X>X>X>X>X",
">X>X>X>X>X>X>X+X`.!.!.!.!.^.G.J.L.L.L./.^././.L.).%X>X>X>X>X>X>X",
">X>X>X>X>XT.l.w.e.u.i.9.S.C.V.D.J.J.K.K.K.J.K.D.D.J.).>X>X>X>X>X",
">X>X>X>Xc.%.X.5.5.5.8.9.V.C.D.K.P.P.U.P.U.K.K.K.J.Z.V.^.>X>X>X>X",
">X>X>Xc.$.&.2.4.2.5.9.8.V.D.L.{.[./.[.{.(.U.K.K.J.J.C.0.].>X>X>X",
">X>X>Xs.{ *.X.X.2.3.7.i S.D.^..X|.}. X~.W (.P.P.Z.D.J.0.S.@X>X>X",
">X>XR Z [ X._ _ X.i.@.+ w.G.^.=X=X|..Xm q _ _.G.J.C.C.V.i.W.>X>X",
">XB.U A [ / _ _ 4.I.9   g G.^.|.=X}. X@ + p X.S.J.D.V.V.9.i.>X>X",
">XN.M A ^ ^ / _ I.1.X . : u.F.'.'.).j..   0 ! X.D.C.0.0.8.8.R.>X",
">XY M B ~ ~ ~ ' A.;.t 9 e e.i.F.Q.Q.h.H F g.y.i.S.V.0.9.8.5.Y.>X",
">XP n j k k ~ ! ' ) ' ..5.q.e.i e.u.Q.p.F.G.G.9.9.0.8.5.8.4.l.>X",
">XN n j l h h ! ' ' ! ) 2.q.] $ i 3.e.p.F.F.i.9.8.8.5.4.5.5.y.>X",
">XF n j h h k W ' Q Q ( ..q.* # $ _ 6.u.8.9.8.6.5.5.5.2.4.w.l.>X",
">XP M b f h h k Q W k Q ( c + & # 8 3.e.3.6.6.5.4.7.7.2.-.-.R.>X",
">XT F c f c h k ! l W Q _ y.E.~.E. .` 3.3.3.2.2.X.4.r.-.,.:.c.>X",
">X>XF M c c c j h f k W Q ^ ( ` ) ^ ` q.` ~ i  .*.r.-.;.k.;.>X>X",
">X>XP J B c B z | 8 & = 9 e u f u e 9 : O * ] *.-.r.;.;.k.b.>X>X",
">X>X>XH C c C B V =.a % O X X X X . O % x :.-.;.&.;.%.z.f.M.>X>X",
">X>X>XD M b b B B k =.Y.#.x w 9 w a A >.;. .&.+.+.d.g.j.c.>X>X>X",
">X>X>X>XS m v A b b c V @.A.E.E.<.1.} ] [ } %.{ d.f.j.R >X>X>X>X",
">X>X>X>X>X>Xs x A b b V z ] V ] V ] | ] } $.s.s.f.x.M.>X>X>X>X>X",
">X>X>X>X>X>X>X>Xy v b V V V | | V | | { a.s.I U K < >X>X>X>X>X>X",
">X>X>X>X>X>X>X>X>X>X; y v v b c j V V J G > ; >X>X>X>X>X>X>X>X>X",
">X>X>X>X>X>X>X>X>X>X>X>X>X>X>X>X>X- - >X>X>X>X>X>X>X>X>X>X>X>X>X",
">X>X>X>X>X>X>X>X>X>X>X>X>X>X>X>X>X>X>X>X>X>X>X>X>X>X>X>X>X>X>X>X"
};
