/* XPM */
static char *_d2530d6e45a4ce99f99505048b80e7ctUNSPpRtujHIx6Dk[] = {
/* columns rows colors chars-per-pixel */
"32 32 137 2 ",
"   c None",
".  c #9C7819",
"X  c #AD7D00",
"o  c #947026",
"O  c #BC940F",
"+  c #A3841F",
"@  c #B69014",
"#  c #BD991D",
"$  c #A78621",
"%  c #B18F20",
"&  c #B9972E",
"*  c #B49B35",
"=  c #C49500",
"-  c #C89700",
";  c #C49901",
":  c #CD9B00",
">  c #C39B0B",
",  c #CB9E0D",
"<  c #D29F00",
"1  c #C09B19",
"2  c #CFA60A",
"3  c #D7A400",
"4  c #DAA600",
"5  c #DBAB00",
"6  c #DFB000",
"7  c #C8A21B",
"8  c #E1AD00",
"9  c #FFAB00",
"0  c #E4B400",
"q  c #E6BA01",
"w  c #EBBC00",
"e  c #E8BD0F",
"r  c #FFB500",
"t  c #F0BF00",
"y  c #E2B515",
"u  c #E6BC14",
"i  c #E5BC19",
"p  c #EBBF1B",
"a  c #D7B42B",
"s  c #D9B82E",
"d  c #CEB233",
"f  c #EDBF24",
"g  c #E3BC2D",
"h  c #EDC200",
"j  c #EEC20D",
"k  c #EEC809",
"l  c #F2C400",
"z  c #FFC600",
"x  c #F6C901",
"c  c #FBCD00",
"v  c #F1C40B",
"b  c #F4C90E",
"n  c #FBCE0F",
"m  c #FFD100",
"M  c #FFD804",
"N  c #FFD70F",
"B  c #EAC214",
"V  c #E8C118",
"C  c #F5CD14",
"Z  c #F8CD17",
"A  c #FBCE18",
"S  c #FFD612",
"D  c #FDD31E",
"F  c #DFC23A",
"G  c #EECE23",
"H  c #E6C32F",
"J  c #EECD2D",
"K  c #F3CC27",
"L  c #F0CD2C",
"P  c #F0D124",
"I  c #FED322",
"U  c #FFDC23",
"Y  c #FFD72A",
"T  c #FFD92B",
"R  c #E1C235",
"E  c #EDCB30",
"W  c #E6C93B",
"Q  c #FFDC34",
"!  c #F7D63D",
"~  c #F5DB3C",
"^  c #FFDE3B",
"/  c #FFE037",
"(  c #FFE33E",
")  c #AB9441",
"_  c #CBB340",
"`  c #C2B44D",
"'  c #DDB54E",
"]  c #DAC34B",
"[  c #DAC857",
"{  c #EDD34B",
"}  c #F4D646",
"|  c #F6DA47",
" . c #E5C852",
".. c #F2DC5A",
"X. c #FFE243",
"o. c #FDE34C",
"O. c #FFED49",
"+. c #FFE653",
"@. c #FFE857",
"#. c #F4E15E",
"$. c #FFE659",
"%. c #FFEB5C",
"&. c #FFF25D",
"*. c #D7D062",
"=. c #D5CD73",
"-. c #ECD56C",
";. c #F4D478",
":. c #FFED65",
">. c #FBED6A",
",. c #FFF264",
"<. c #FFF46A",
"1. c #FFFB6C",
"2. c #F4E27F",
"3. c #FDEF7D",
"4. c #FFF671",
"5. c #FFF870",
"6. c #FFF872",
"7. c #FFFA73",
"8. c #FFFC71",
"9. c #FFFF75",
"0. c #FFFF76",
"q. c #FFFD78",
"w. c #FFFF7C",
"e. c #FFFF7F",
"r. c #F0D986",
"t. c #FFFF80",
"y. c #FCFB86",
"u. c #FFFF86",
"i. c #FFFF89",
"p. c #FFFF8A",
"a. c #FFFF8D",
"s. c #F2E097",
"d. c #FCFB91",
"f. c #FFFF91",
"g. c #FFFF92",
"h. c #FFFA9F",
"j. c #F4E1A3",
/* pixels */
"                                                                ",
"                                                                ",
"                                                                ",
"                                                                ",
"                                                                ",
"                              X.Q                               ",
"                      h.>.&.:.>.:.:.$.! A                       ",
"                    3.O.<.5.<.#.#.%.%.o.X.K                     ",
"                  ,.&.7.[ + ) ` ` * @ R ( Q I                   ",
"                %.,.>.. =.f.p.e.0.1.:.F @ Q U b                 ",
"              ,.,.>.o d.f.a.& X X s +.( Q O U N q               ",
"            <.@.<.. y.a.y.e.# 2 , H | ^ T I 2 S c r             ",
"            o.:.] *.t.e.q.8.# y y E ^ T D Z i v c 0             ",
"            @.:.$ 0.5.5.<.,.1 u y E Y I Z b l q c h             ",
"            $.%.* <.,.:.$.@.> u i L I Z b h l w x x             ",
"          Y +.| _ %.$.@.o.X.> e i L Z b l h w l l l             ",
"          I X.~ d o.X.| Q Q > u V L b l w w w k l l             ",
"            Q / 7 Q Q T T U ; q B L l w w q 0 K h l             ",
"            T Q 7 T I D Z n ; q w J w q q 0 0 ~ w 0             ",
"            B U B u S x l x = q h J 0 0 5 0 g | t <             ",
"            z M N 5 l l h l = 0 h G 5 6 5 4 r.w w               ",
"              q m c 0 h w w a { ..-.4 5 4 s.V h -               ",
"                l c x h q 0 8 8 4 3 3 ' j.f w 4                 ",
"                  w x x c C E W  .-.r.;.w w 4                   ",
"                    4 x l l t v v w w w w -                     ",
"                      9 < w l w w w 6 :                         ",
"                                                                ",
"                                                                ",
"                                                                ",
"                                                                ",
"                                                                ",
"                                                                "
};
