/* XPM */
static char *exit_last[] = {
/* columns rows colors chars-per-pixel */
"32 32 89 1 ",
"  c gray13",
". c #252525",
"X c #272727",
"o c #2A2A2A",
"O c gray35",
"+ c #606060",
"@ c #D48815",
"# c #FFC107",
"$ c #9EBB57",
"% c #9FBE55",
"& c #9DB85F",
"* c #9EBA5F",
"= c #9EBB5F",
"- c #A3BF56",
"; c #A3BF57",
": c #A0BB5A",
"> c #A1BD59",
", c #A1BF5B",
"< c #A2BF5A",
"1 c #A3BD5C",
"2 c #A3BE5C",
"3 c #A0BE5F",
"4 c #A4BD5E",
"5 c #9FBC60",
"6 c #9FB865",
"7 c #9FB86B",
"8 c #A0B764",
"9 c #A1B962",
"0 c #A2BF61",
"q c #A6BF61",
"w c #A3BB65",
"e c #A4BB64",
"r c #A4BD64",
"t c #A7BE66",
"y c #A3B66A",
"u c #A4BB6B",
"i c #A6BA6B",
"p c #A6BE68",
"a c #A7BF6B",
"s c #A1BA6C",
"d c #A6BA6D",
"f c #A5BF6D",
"g c #A6BD6E",
"h c #A5BF6E",
"j c #A6B976",
"k c #A6B779",
"l c #A6B978",
"z c #A8BA78",
"x c #AABD7E",
"c c #A0C053",
"v c #A2C253",
"b c #A3C155",
"n c #A2C056",
"m c #A2C157",
"M c #A4C256",
"N c #A5C356",
"B c #A3C059",
"V c #A5C359",
"C c #A4C15A",
"Z c #A4C05B",
"A c #A3C160",
"S c #A7C062",
"D c #A4C263",
"F c #A7C072",
"G c #A8C173",
"H c #8D8D8D",
"J c #929292",
"K c #939393",
"L c #A7B380",
"P c #A6B287",
"I c #AAB78B",
"U c #C3C3C3",
"Y c gray80",
"T c gainsboro",
"R c gray87",
"E c gray88",
"W c #E9E9E9",
"Q c #EAEAEA",
"! c gray92",
"~ c #FCFEF9",
"^ c #FEFFF8",
"/ c #FEFFFB",
"( c gray99",
") c #FDFDFD",
"_ c #FEFFFD",
"` c #FDFFFE",
"' c #FEFEFE",
"] c white",
"[ c None",
/* pixels */
"[[[[[[[[[[[[[[[[[[[[[[[[[[[[[[[[",
"[[[[[[[[[[[[[[[[[[#oJ[[[[[[[[[[[",
"[[[[[[###########`#@XHT###[[[[[[",
"[[[[[[###########`#@@XJT##[[[[[[",
"[[[[[[##[[[[[[[[[[#@@@XJE#[[[[[[",
"[[[[[[##[[[[[[[[[[#@@@@X[#[[[[[[",
"[[[[[[##[[[[[[[[[[#@@@@@[#[[[[[[",
"[[[[[[##[[[[[[[[[[#@@@@@[#[[[[[[",
"[[[[[[##[[[[[[[[[[#@@@@@[#[[[[[[",
"[[[[[[##[[[[[[[[[[#@@@@@[#[[[[[[",
"[[[[[[#[[[[[[[[[[[#@@@@@[#[[[[[[",
"[[[[[[#[[PL[[[^[`[#@@@@@[#[[[[[[",
"[[[[[[#[[[dy[[[`[`#@@@@@[#[[[[[[",
"[[[[[[[[[[D48[[[`[#@@@@@[#[[[[[[",
"[[[lg6Fsg=BbZr[[[`#@@@@@[#[[[[[[",
"[[ke;b$0=AbbM>p[[[#@@@@@[#[[[[[[",
"[[zrbM,4=A%-Z>g[[`#@!``@[#[[[[[[",
"[[[js6G7F&;ZZ9[[[[#@WW@@[#[[[[[[",
"[[[[[[[[[[D1w[[[[`#@@@@@[#[[[[[[",
"[[[[[[#[[xi[[[[[`[#@@@@@[#[[[[[[",
"[[[[[[#[[I[[[[[^[`#@@@@@[#[[[[[[",
"[[[[[[#[[[[[[[[[[[#@@@@@[#[[[[[[",
"[[[[[[##[[[[[[[[[[#@@@@@[#[[[[[[",
"[[[[[[##[[[[[[[[[[#@@@@@[#[[[[[[",
"[[[[[[##[[[[[[[[[[#@@@@@[#[[[[[[",
"[[[[[[##[[[[[[[[[[#@@@@@[#[[[[[[",
"[[[[[[##[[[[[[[[[[#@@@@X[#[[[[[[",
"[[[[[[###########`#@@@####[[[[[[",
"[[[[[[[[[[[[[[[[[[#@@ +U[[[[[[[[",
"[[[[[[[[[[[[[[[[[[#@OY[[[[[[[[[[",
"[[[[[[[[[[[[[[[[[[[[[[[[[[[[[[[[",
"[[[[[[[[[[[[[[[[[[[[[[[[[[[[[[[["
};
