/* XPM */
static char *_41c8fdfcc3a4158abf012afc837a696O12TH5ELnVvLBWOO[] = {
/* columns rows colors chars-per-pixel */
"32 32 85 1 ",
"  c None",
". c gray13",
"X c #252525",
"o c #272727",
"O c #2A2A2A",
"+ c gray35",
"@ c #A85A10",
"# c #D48815",
"$ c #FFC107",
"% c #9EBB57",
"& c #9FBE55",
"* c #9DB85F",
"= c #9EBA5F",
"- c #9EBB5F",
"; c #A3BF56",
": c #A3BF57",
"> c #A0BB5A",
", c #A1BD59",
"< c #A1BF5B",
"1 c #A2BF5A",
"2 c #A3BD5C",
"3 c #A3BE5C",
"4 c #A0BE5F",
"5 c #A4BD5E",
"6 c #9FBC60",
"7 c #9FB865",
"8 c #9FB86B",
"9 c #A0B764",
"0 c #A1B962",
"q c #A2BF61",
"w c #A6BF61",
"e c #A3BB65",
"r c #A4BB64",
"t c #A4BD64",
"y c #A7BE66",
"u c #A3B66A",
"i c #A4BB6B",
"p c #A6BA6B",
"a c #A1BA6C",
"s c #A6BA6D",
"d c #A5BF6D",
"f c #A6BD6E",
"g c #A5BF6E",
"h c #A6B976",
"j c #A6B779",
"k c #A6B978",
"l c #A8BA78",
"z c #AABD7E",
"x c #A0C053",
"c c #A2C253",
"v c #A3C155",
"b c #A2C056",
"n c #A2C157",
"m c #A4C256",
"M c #A5C356",
"N c #A3C059",
"B c #A5C359",
"V c #A4C15A",
"C c #A4C05B",
"Z c #A3C160",
"A c #A7C062",
"S c #A4C263",
"D c #A7C072",
"F c #A8C173",
"G c #8D8D8D",
"H c #929292",
"J c #A7B380",
"K c #A6B287",
"L c #AAB78B",
"P c #C3C3C3",
"I c gray80",
"U c gainsboro",
"Y c gray88",
"T c #E9E9E9",
"R c #EAEAEA",
"E c gray92",
"W c #FCFEF9",
"Q c #FEFFF8",
"! c #FEFFFB",
"~ c gray99",
"^ c #FDFDFD",
"/ c #FEFFFD",
"( c #FDFFFE",
") c #FEFEFE",
"_ c white",
/* pixels */
"                                ",
"                   $O           ",
"      $$$$$$$$$$$$ $#oG$$$      ",
"      $$$$$$$$$$$$/$##oU$$      ",
"      $$           $###HY$      ",
"      $$           $###o $      ",
"      $$           $#### $      ",
"      $$           $#### $      ",
"      $$           $#### $      ",
"      $$           $#### $      ",
"      $            $#### $      ",
"      $   KJ  Q /  $#### $      ",
"      $    su  /   $#### $      ",
"           Sq0  /  $#### $      ",
"  , kf7Daf-N:3t    $#### $      ",
"   jr:v%q6CNcv,,   $#### $      ",
"   lyvMN--S:vB>,   $#R/# $      ",
"  , ki7F8f*,N30    $#RR# $      ",
"           S30     $#### $      ",
"      $   zs    /  $#### $      ",
"      $   L    Q   $#### $      ",
"      $            $#### $      ",
"      $$           $#### $      ",
"      $$           $#### $      ",
"      $$           $#### $      ",
"      $$           $#### $      ",
"      $$           $###o $      ",
"      $$$$$$$$$$$$/$###$$$      ",
"                   $##.P        ",
"                   $#@I         ",
"                   $@+          ",
"                                "
};
