/* XPM */
static char *_228109b363f46bc822b966aaeab8905XYmTpwXPqCc4LMJy[] = {
/* columns rows colors chars-per-pixel */
"32 32 80 1 ",
"  c None",
". c gray13",
"X c #252525",
"o c #272727",
"O c #2A2A2A",
"+ c #A85A10",
"@ c #D48815",
"# c #FFC107",
"$ c #9EBB57",
"% c #9FBE55",
"& c #9DB85F",
"* c #9EBA5F",
"= c #9EBB5F",
"- c #A3BF56",
"; c #A3BF57",
": c #A0BB5A",
"> c #A1BD59",
", c #A1BF5B",
"< c #A2BF5A",
"1 c #A3BD5C",
"2 c #A3BE5C",
"3 c #A0BE5F",
"4 c #A4BD5E",
"5 c #9FBC60",
"6 c #9FB865",
"7 c #9FB86B",
"8 c #A0B764",
"9 c #A1B962",
"0 c #A2BF61",
"q c #A6BF61",
"w c #A3BB65",
"e c #A4BB64",
"r c #A4BD64",
"t c #A7BE66",
"y c #A3B66A",
"u c #A4BB6B",
"i c #A6BA6B",
"p c #A1BA6C",
"a c #A6BA6D",
"s c #A5BF6D",
"d c #A6BD6E",
"f c #A5BF6E",
"g c #A6B976",
"h c #A6B779",
"j c #A6B978",
"k c #A8BA78",
"l c #A0C053",
"z c #A2C253",
"x c #A3C155",
"c c #A2C056",
"v c #A2C157",
"b c #A4C256",
"n c #A5C356",
"m c #A3C059",
"M c #A5C359",
"N c #A4C15A",
"B c #A4C05B",
"V c #A3C160",
"C c #A7C062",
"Z c #A4C263",
"A c #A7C072",
"S c #A8C173",
"D c #8D8D8D",
"F c #929292",
"G c #A7B380",
"H c #C3C3C3",
"J c gray80",
"K c gainsboro",
"L c gray88",
"P c #E9E9E9",
"I c #EAEAEA",
"U c gray92",
"Y c #FCFEF9",
"T c #FEFFF8",
"R c #FEFFFB",
"E c gray99",
"W c #FDFDFD",
"Q c #FEFFFD",
"! c #FDFFFE",
"~ c #FEFEFE",
/* pixels */
"                                ",
"                   #O           ",
"      ############ #@oD###      ",
"      ############!#@@oK##      ",
"      ##           #@@@FL#      ",
"      ##           #@@@o #      ",
"      ##           #@@@@ #      ",
"      ##           #@@@@ #      ",
"      ##           #@@@@ #      ",
"      ##           #@@@@ #      ",
"      #            #@@@@ #      ",
"      #      G  T  #@@@@ #      ",
"      #      ay!   #@@@@ #      ",
"   %         C46T  #@@@@ #      ",
"  > jd6  Apd=mxBr  #@@@@ #      ",
"   he;x%%$05Vxxx>% #@@@@ #      ",
"   jrxn%%m==Z%lM:% #@U!@ #      ",
"  > gd6  S7d5mN49  #@II@ #      ",
"   ;         q49   #@@@@ #      ",
"      #      i% !  #@@@@ #      ",
"      #      % T   #@@@@ #      ",
"      #            #@@@@ #      ",
"      ##           #@@@@ #      ",
"      ##           #@@@@ #      ",
"      ##           #@@@@ #      ",
"      ##           #@@@@ #      ",
"      ##           #@@@o #      ",
"      ############!#@@@###      ",
"                   #@@.H        ",
"                   #@+J         ",
"                   #+           ",
"                                "
};
