/* XPM */
static char *f1905dbe266349fae814dcb56ba1c608cMXW0Zx9W0Cqlcky[] = {
/* columns rows colors chars-per-pixel */
"32 32 66 1 ",
"  c None",
". c #272727",
"X c #A85A10",
"o c #D48815",
"O c #FFC107",
"+ c #9EBB57",
"@ c #9FBE55",
"# c #9DB85F",
"$ c #9EBA5F",
"% c #9EBB5F",
"& c #A3BF56",
"* c #A3BF57",
"= c #A0BB5A",
"- c #A1BD59",
"; c #A1BF5B",
": c #A2BF5A",
"> c #A3BD5C",
", c #A3BE5C",
"< c #A0BE5F",
"1 c #A4BD5E",
"2 c #9FBC60",
"3 c #9FB865",
"4 c #9FB86B",
"5 c #A0B764",
"6 c #A1B962",
"7 c #A2BF61",
"8 c #A6BF61",
"9 c #A3BB65",
"0 c #A4BB64",
"q c #A4BD64",
"w c #A7BE66",
"e c #A3B66A",
"r c #A4BB6B",
"t c #A6BA6B",
"y c #A1BA6C",
"u c #A6BA6D",
"i c #A5BF6D",
"p c #A6BD6E",
"a c #A5BF6E",
"s c #A6B976",
"d c #A6B779",
"f c #A6B978",
"g c #A8BA78",
"h c #A0C053",
"j c #A2C253",
"k c #A3C155",
"l c #A2C056",
"z c #A2C157",
"x c #A4C256",
"c c #A5C356",
"v c #A3C059",
"b c #A5C359",
"n c #A4C15A",
"m c #A4C05B",
"M c #A3C160",
"N c #A7C062",
"B c #A4C263",
"V c #A7C072",
"C c #A8C173",
"Z c #A7B380",
"A c gainsboro",
"S c gray88",
"D c #EAEAEA",
"F c gray92",
"G c gray99",
"H c #FEFEFE",
/* pixels */
"                    O.          ",
"                    Oo          ",
"      OOOOOOOOOOOO  Oo.OOO      ",
"      OOOOOOOOOOOOG OooAOO      ",
"      OO            Ooo.SO      ",
"      OO            Oooo O      ",
"      OO            Oooo O      ",
"      OO            Oooo O      ",
"      OO            Oooo O      ",
"      OO            Oooo O      ",
"      O             Oooo O      ",
"      O       Z     Oooo O      ",
"      O       ue    Oooo O      ",
"              B15   Oooo O      ",
"    fp3   Vyp%vkmq  Oooo O      ",
"   d0*k@@@+7%Mkkx-@ Oooo O      ",
"   gq*c@@@;1%M&hm-@ OoFo O      ",
"    sp3   C4V#-mm6  OoFo O      ",
"              B>9   Oooo O      ",
"      O       u@    Oooo O      ",
"      O       @     Oooo O      ",
"      O             Oooo O      ",
"      OO            Oooo O      ",
"      OO            Oooo O      ",
"      OO            Oooo O      ",
"      OO            Oooo O      ",
"      OO            Oooo O      ",
"      OOOOOOOOOOOOG OooXOO      ",
"                    Ooo.        ",
"                    OoX         ",
"                    Oo.         ",
"                    Oo          "
};
