/* XPM */
static char *Freddy11[] = {
/* columns rows colors chars-per-pixel */
"32 32 86 1 ",
"  c #000008",
". c #170B07",
"X c gray12",
"o c #3E1E05",
"O c #33271C",
"+ c #462205",
"@ c #4E2605",
"# c #552A05",
"$ c #572A05",
"% c #5E2E04",
"& c #412D1A",
"* c #523417",
"= c #553517",
"- c #6C3504",
"; c #6D3504",
": c #703604",
"> c #6F4013",
", c #6E645A",
"< c gray39",
"1 c #666360",
"2 c #646464",
"3 c #777777",
"4 c #FE2323",
"5 c #FF2323",
"6 c #FF2825",
"7 c #FF2D27",
"8 c #F92629",
"9 c #F6282D",
"0 c #FF3129",
"q c #FF382C",
"w c #FF3F2F",
"e c #8B4403",
"r c #8D4503",
"t c #8C4C0F",
"y c #944803",
"u c #A45002",
"i c #AA5302",
"p c #AC5402",
"a c #A6570B",
"s c #B65901",
"d c #B45802",
"f c #BD5C01",
"g c #C05E01",
"h c #C76101",
"j c #C36307",
"k c #C76506",
"l c #C86201",
"z c #CC6401",
"x c #CE6501",
"c c #CA6605",
"v c #E47102",
"b c #EB7300",
"n c #ED7400",
"m c #EE7703",
"M c #EF7703",
"N c #EB7705",
"B c #F27500",
"V c #F27600",
"C c #F37600",
"Z c #F27700",
"A c #F37700",
"S c #F47700",
"D c #F37800",
"F c #FF593B",
"G c #FF5B3C",
"H c #FF5F3E",
"J c #886849",
"K c #FF6641",
"L c #FF7D4B",
"P c #FF7F4D",
"I c #F38C10",
"U c #F39014",
"Y c #F4981C",
"T c #F5A32A",
"R c #FF9F5B",
"E c #FFA960",
"W c #FFB063",
"Q c #FFC56C",
"! c #FFCD70",
"~ c #FFDB76",
"^ c #718FCB",
"/ c #5B8AE7",
"( c #FFF281",
") c #FFFF87",
"_ c #DBE7FB",
"` c None",
/* pixels */
"````````````````````````````````",
"````````````````<<<<<<``````````",
"```````````````2<<<<<<``````````",
"```````````````2<<<<<<``````````",
"```````````````2<<<<<<``````````",
"```````````````2<<<<<<``````````",
"`````````````<<<<<<<<<<<<```````",
"`````UI`````<1JJJJJJJJJJ,```````",
"`````TY```````AAAAAAAAAAS```````",
"`````^````````Ag++ni+$AAA```````",
"`````_````````Ap+ br+.AAA```````",
"`````/````````Ah$oxi%;AAA```````",
"``44498444````AAd  uAAAAA```````",
"``7F4qq4H6````AAh@@fAAAAA```````",
"``wW4GKqQ0`````e;;;;;;;:s```````",
"``L(~P!))R`````p      ++A```````",
"``)))E~)))``3`Di+      +A``AA```",
"``))))))))````Dx;;;;;;;yA``AAAA`",
"33333333333`AAAAAADAAAAAA`AAAAA`",
"```mmmZnN```AAAAkO*AAAAAAAAAAAA`",
"```AAAAAAAAAAAAAjX&AAAAAASSAAA``",
"`````AAAAAAAAAAAvjcAAAAAA```D```",
"`````AAAAAA``AAAtX&AAAAAA```````",
"`````````````DAAa=>AAAAAA```````",
"``````````````AAAAAAAAAAA```````",
"`````````````AAAAAAAAAAAA```````",
"````````````DAAAAADDAAAAAA``````",
"````````````DAAAA````AAAAA``````",
"````````````DAAAA````AAAAA``````",
"```````````AAAAA`````SAAAAA`````",
"``````````AAAAAA`````SAAAAA`````",
"``````````AAAAAA````````````````"
};
