/* XPM */
static char *e09cd6ed53774008aac9cb88aa09e1a639hLTqs1N9gsvSAy[] = {
/* columns rows colors chars-per-pixel */
"32 32 87 1 ",
"  c None",
". c #000008",
"X c #170B07",
"o c gray12",
"O c #3E1E05",
"+ c #33271C",
"@ c #462205",
"# c #4E2605",
"$ c #552A05",
"% c #572A05",
"& c #5E2E04",
"* c #412D1A",
"= c #523417",
"- c #553517",
"; c #6C3504",
": c #6D3504",
"> c #703604",
", c #6F4013",
"< c #6E645A",
"1 c gray39",
"2 c #666360",
"3 c #646464",
"4 c #777777",
"5 c #FE2323",
"6 c #FF2323",
"7 c #FF2825",
"8 c #FF2D27",
"9 c #F92629",
"0 c #F6282D",
"q c #FF3129",
"w c #FF382C",
"e c #FF3F2F",
"r c #8B4403",
"t c #8D4503",
"y c #8C4C0F",
"u c #944803",
"i c #A45002",
"p c #AA5302",
"a c #AC5402",
"s c #A6570B",
"d c #B65901",
"f c #B45802",
"g c #BD5C01",
"h c #C05E01",
"j c #C76101",
"k c #C36307",
"l c #C76506",
"z c #C86201",
"x c #CC6401",
"c c #CE6501",
"v c #CA6605",
"b c #E47102",
"n c #EB7300",
"m c #ED7400",
"M c #EE7703",
"N c #EF7703",
"B c #EB7705",
"V c #F27500",
"C c #F17700",
"Z c #F27600",
"A c #F37600",
"S c #F27700",
"D c #F37700",
"F c #F47700",
"G c #F37800",
"H c #FF593B",
"J c #FF5B3C",
"K c #FF5F3E",
"L c #886849",
"P c #FF6641",
"I c #FF7D4B",
"U c #FF7F4D",
"Y c #F38C10",
"T c #F39014",
"R c #F4981C",
"E c #F5A32A",
"W c #FF9F5B",
"Q c #FFA960",
"! c #FFB063",
"~ c #FFC56C",
"^ c #FFCD70",
"/ c #FFDB76",
"( c #718FCB",
") c #5B8AE7",
"_ c #FFF281",
"` c #FFFF87",
"' c #DBE7FB",
/* pixels */
"                                ",
"                111111          ",
"               3111111          ",
"               3111111          ",
"               3111111          ",
"      TY       3111111          ",
"      ER     111111111111       ",
"      (     12LLLLLLLLLL<       ",
"      '       DDDDDDDDDDF       ",
"      )       Dh@@mp@%DDD       ",
"   55509555   Da@.nt@XDDD       ",
"   8H5ww5K7   Dj%Ocp&:DDD       ",
"   e!5JPw~q   DDf..iDDDDD       ",
"   I_/U^``W   DDj##gDDDDD       ",
"   ```Q/```    r:::::::>d       ",
"   ````````    a......@@D       ",
" 444444444444 Gp@......@D       ",
"    NNNNmB    Gc:::::::uD       ",
"    DDDDGGDDDDDDDDGDDDDDD       ",
"      DDDFDDDDDDl+=DDDDDDDD     ",
"      DDDDDDDDDDko*DDDDDDDD     ",
"          DDDDDDbkvDDDDDDDDD    ",
"             DDDyo*DDDDDDDDDD   ",
"             GDDs-,DDDDDDDDDD   ",
"              DDDDDDDDDDD DDD   ",
"             DDDDDDDDDDDD       ",
"            GDDDDDGGDDDDDD      ",
"            GDDDD    DDDDD      ",
"            GDDDD    DDDDD      ",
"           DDDDD     FDDDDD     ",
"          DDDDDD     FDDDDD     ",
"          DDDDDD                "
};
