/* XPM */
static char *_ce24fddb97f4a64ebac62e7f4d93835WOGCixddXrZQohOS[] = {
/* columns rows colors chars-per-pixel */
"32 32 87 1 ",
"  c None",
". c #000008",
"X c gray12",
"o c #3E1E05",
"O c #33271C",
"+ c #462205",
"@ c #4E2605",
"# c #552A05",
"$ c #572A05",
"% c #5E2E04",
"& c #412D1A",
"* c #523417",
"= c #553517",
"- c #6C3504",
"; c #6D3504",
": c #703604",
"> c #6F4013",
", c #6E645A",
"< c gray39",
"1 c #666360",
"2 c #646464",
"3 c #777777",
"4 c #FE2323",
"5 c #FF2323",
"6 c #FF2825",
"7 c #FF2D27",
"8 c #F92629",
"9 c #F6282D",
"0 c #FF3129",
"q c #FF382C",
"w c #FF3F2F",
"e c #8B4403",
"r c #8D4503",
"t c #8C4C0F",
"y c #944803",
"u c #A45002",
"i c #AA5302",
"p c #AC5402",
"a c #A6570B",
"s c #B65901",
"d c #B45802",
"f c #BD5C01",
"g c #C05E01",
"h c #C76101",
"j c #C36307",
"k c #C76506",
"l c #C86201",
"z c #CC6401",
"x c #CE6501",
"c c #CA6605",
"v c #E47102",
"b c #EB7300",
"n c #ED7400",
"m c #EE7703",
"M c #EF7703",
"N c #EB7705",
"B c #F27500",
"V c #F17600",
"C c #F17700",
"Z c #F27600",
"A c #F37600",
"S c #F27700",
"D c #F37700",
"F c #F47700",
"G c #F37800",
"H c #FF593B",
"J c #FF5B3C",
"K c #FF5F3E",
"L c #886849",
"P c #FF6641",
"I c #FF7D4B",
"U c #FF7F4D",
"Y c #F38C10",
"T c #F39014",
"R c #F4981C",
"E c #F5A32A",
"W c #FF9F5B",
"Q c #FFA960",
"! c #FFB063",
"~ c #FFC56C",
"^ c #FFCD70",
"/ c #FFDB76",
"( c #718FCB",
") c #5B8AE7",
"_ c #FFF281",
"` c #FFFF87",
"' c #DBE7FB",
/* pixels */
"                                ",
"                <<<<<<          ",
"               2<<<<<<          ",
"     TY        2<<<<<<          ",
"     ER        2<<<<<<          ",
"     (         2<<<<<<          ",
"     '       <2<<<<<<<<<<       ",
"     )      <1LLLLLLLLLL,       ",
"  44598555    CFFCGFCFFFF       ",
"  7H5qq5K6   Fg++mi+$FCCC       ",
"  w!5JPq~0   Fp.obe.oFFFF       ",
"  I_/U^``W   Ch$oxi%;FCFF       ",
"  ```Q/```   CCd..uCFCFFC       ",
"  ````````   FFl@@fFFCFCF       ",
"33333333333   e;;;;;;;:sC       ",
"   mmCmmN     p.......+F        ",
"   DDDDDDDD 3Fpo.....o+DD       ",
"     DDDDDD  Fc;;;;;;;yDD       ",
"     DDDDDDDDDDDCFFCDDDDD       ",
"         DDDDDDDcO*FDDDDDDD     ",
"           DDDDDjX&GGGDDDDD     ",
"            DDDDvjcGGGDDDDD     ",
"             DDDtX&GGFDDDDDD    ",
"             GDDa=:MGFDDDDDDD   ",
"             GDDDDDDDDDDD DDD   ",
"             GDDDDDDDDDDD DDD   ",
"            GDDDD GGDDDDD  DD   ",
"           DDDDD    DDDDD       ",
"          DDDDDD     DDDDD      ",
"          DDDDDD     FDDDDD     ",
"                     FDDDDD     ",
"                     DDDDDD     "
};
