/* XPM */
static char *Freddy10[] = {
/* columns rows colors chars-per-pixel */
"32 32 82 1 ",
"  c #000008",
". c #170B07",
"X c gray12",
"o c #3E1E05",
"O c #33271C",
"+ c #462205",
"@ c #4E2605",
"# c #552A05",
"$ c #572A05",
"% c #5E2E04",
"& c #412D1A",
"* c #523417",
"= c #553517",
"- c #6C3504",
"; c #6D3504",
": c #703604",
"> c #6F4013",
", c #6E645A",
"< c gray39",
"1 c #666360",
"2 c #777777",
"3 c #FE2323",
"4 c #FF2323",
"5 c #FF2825",
"6 c #FF2D27",
"7 c #F92629",
"8 c #F6282D",
"9 c #FF3129",
"0 c #FF382C",
"q c #FF3F2F",
"w c #8B4403",
"e c #8D4503",
"r c #8C4C0F",
"t c #944803",
"y c #A45002",
"u c #AA5302",
"i c #AC5402",
"p c #A6570B",
"a c #B65901",
"s c #B45802",
"d c #BD5C01",
"f c #C05E01",
"g c #C76101",
"h c #C36307",
"j c #C76506",
"k c #C86201",
"l c #CC6401",
"z c #CE6501",
"x c #CA6605",
"c c #E47102",
"v c #EB7300",
"b c #ED7400",
"n c #EF7703",
"m c #EB7706",
"M c #EE7704",
"N c #F27600",
"B c #F37600",
"V c #F27700",
"C c #F37700",
"Z c #FF593B",
"A c #FF5B3C",
"S c #FF5F3E",
"D c #886849",
"F c #FF6641",
"G c #FF7D4B",
"H c #FF7F4D",
"J c #F38C10",
"K c #F39014",
"L c #F4971C",
"P c #F5A32A",
"I c #FF9F5B",
"U c #FFA960",
"Y c #FFB063",
"T c #FFC56C",
"R c #FFCD70",
"E c #FFDB76",
"W c #718FCB",
"Q c #5B8AE7",
"! c #FFF281",
"~ c #FFFF87",
"^ c #DBE7FB",
"/ c None",
/* pixels */
"////////////////////////////////",
"////////////////<<<<<<//////////",
"///////////////<<<<<<<//////////",
"///////////////<<<<<<<//////////",
"///////////////<<<<<<<//////////",
"//////KJ///////<<<<<<<//////////",
"//////PL/////<<<<<<<<<<<<///////",
"//////W/////<1DDDDDDDDDD,///////",
"//////^///////CCCCCCCCCCC///////",
"//////Q//////Cf++bu+$CCCC///////",
"///33387333//Ci  ve .CCCC///////",
"///6Z3003S5//Cg#ozu%;CCCC///////",
"///qY3AF0T9//CCs  yCCCCCC///////",
"///G!EHR~~I//CCk@@dCCCCCC///////",
"///~~~UE~~~///w;;;;;;;:sC///////",
"///~~~~~~~~///i       +C////////",
"/222222222222Ci       +CC///////",
"////Mnnnbm///Cz;;;;;;;tCC///////",
"////CCCCCCCCCCCCCCCCCCCCC///////",
"//////CCCCCCCCCCjO*CCCCCCCC/////",
"//////CCCCCCCCCChX&CCCCCCCC/////",
"//////////CCCCCCchxCCCCCCCCC////",
"/////////////CCCrX&CCCCCCCCCC///",
"/////////////CCCp=>CCCCCCCCCC///",
"/////////////CCCCCCCCCCCC/CCC///",
"/////////////CCCCCCCCCCCC///////",
"/////////////CCCCCCCCCCCC///////",
"////////////CCCCC///CCCCC///////",
"///////////CCCCCC///CCCCC///////",
"///////////CCCCCC///CCCCCC//////",
"////////////////////CCCCCC//////",
"////////////////////CCCCCC//////"
};
