/* XPM */
static char *_576_4a810f8b9facb0529f9cd5a059d3efb44585b26a63c24abf01d3520847b7a763[] = {
/* columns rows colors chars-per-pixel */
"32 32 145 2 ",
"   c #020303",
".  c #0A0603",
"X  c #0C0804",
"o  c #0B0C0C",
"O  c #150E0B",
"+  c #0F1209",
"@  c #111109",
"#  c #1E160F",
"$  c #0F1012",
"%  c #0E171E",
"&  c #161717",
"*  c #1A1512",
"=  c #131A13",
"-  c #1B1B1B",
";  c #1C171E",
":  c #211308",
">  c #201010",
",  c #211811",
"<  c #211D1A",
"1  c #192A1C",
"2  c #382D0F",
"3  c #27201A",
"4  c #2C231B",
"5  c #272C1B",
"6  c #0D1723",
"7  c #121A20",
"8  c #2F1834",
"9  c #1B2325",
"0  c #1A2C3A",
"q  c #242424",
"w  c #2A2622",
"e  c #262628",
"r  c #2C2C2C",
"t  c #2C2825",
"y  c #342F2B",
"u  c #3F332F",
"i  c #37322E",
"p  c #2A2431",
"a  c #202A33",
"s  c #2E2D30",
"d  c #232F39",
"f  c #3C2F36",
"g  c #2C3033",
"h  c #28343D",
"j  c #343434",
"k  c #3C3533",
"l  c #363638",
"z  c #363C38",
"x  c #3B3B3C",
"c  c #3E3935",
"v  c #503C19",
"b  c #47372A",
"n  c #533E2D",
"m  c #423A34",
"M  c #384B2D",
"N  c #354731",
"B  c #304139",
"V  c #55402F",
"C  c #45413D",
"Z  c #4A423A",
"A  c #4A493D",
"S  c #5A4432",
"D  c #52543C",
"F  c #645C2E",
"G  c #614C3B",
"H  c #58602D",
"J  c #2D3740",
"K  c #2D3A43",
"L  c #313447",
"P  c #3F3043",
"I  c #3C3E41",
"U  c #423F42",
"Y  c #473D4B",
"T  c #3F4E49",
"R  c #3E4245",
"E  c #424343",
"W  c #4B4B4B",
"Q  c #494542",
"!  c #504740",
"~  c #5E4B44",
"^  c #464F58",
"/  c #414A51",
"(  c #504758",
")  c #535353",
"_  c #5D5D5D",
"`  c #615F49",
"'  c #695B5A",
"]  c #58685E",
"[  c #62644F",
"{  c #585560",
"}  c #695E62",
"|  c #636364",
" . c #6C6C6D",
".. c #776066",
"X. c #777C65",
"o. c #727272",
"O. c #7B7B7C",
"+. c #946506",
"@. c #846E25",
"#. c #9E8334",
"$. c #FF9800",
"%. c #FBB51F",
"&. c #C89039",
"*. c #C29E3D",
"=. c #DC9A3C",
"-. c #DEAB2C",
";. c #D3B32A",
":. c #C3BC3A",
">. c #EDBF29",
",. c #E4B42C",
"<. c #F6BE29",
"1. c #E5A831",
"2. c #F8A03A",
"3. c #E8B43A",
"4. c #FFBE3B",
"5. c #EFC31A",
"6. c #FFEB3B",
"7. c #F2E33E",
"8. c #9B8343",
"9. c #A08D41",
"0. c #BC984A",
"q. c #87897B",
"w. c #BB9861",
"e. c #CD9443",
"r. c #D59C41",
"t. c #E7924F",
"y. c #D7AE44",
"u. c #E3B24F",
"i. c #C8AA74",
"p. c #EDA771",
"a. c #F9DF4C",
"s. c #F5E15E",
"d. c #EFE37F",
"f. c #887F84",
"g. c #8E8E8E",
"h. c #939393",
"j. c gray63",
"k. c gray78",
"l. c gray85",
"z. c #FFCDD2",
"x. c #FBF3CC",
"c. c #FFF7E4",
"v. c #FFFFEA",
"b. c white",
"n. c None",
/* pixels */
"n.n.n.n.n.n.n.n.n.n.n.n.n.n.n.n.n.n.n.n.n.n.n.n.n.n.n.n.n.n.n.n.",
"n.n.n.n.n.n.n.n.n.n.n.n.n.n.n.n.n.n.n.n.x n.n.n.n.n.n.n.n.n.n.n.",
"n.n.n.n.n.n.n.n.n.n.n.n.n.n.n.n.n.n.n.n.h.r n.n.n.n.n.n.n.n.n.n.",
"n.n.n.n.n.n.n.n.n.n.n.n.n.n.n.n.n.n.n.e E W n.n.n.n.n.n.n.n.n.n.",
"n.n.n.n.n.n.n.n.n.n.n.n.n.n.n.n.n.n.n.r j W j.n.n.n.n.n.n.n.n.n.",
"n.n.n.n.n.n.n.n.n.n.n.n.n.n.n.n.n.n.n.r j j W n.n.n.n.n.n.n.n.n.",
"n.n.n.n.n.n.n.n.n.n.n.n.n.n.n.n.n.n.7 q z x Q } n.n.n.n.n.n.n.n.",
"n.n.n.n.n.n.n.n.n.n.n.n.n.n.n.n.n.O 7 1 l ( ] q.n.n.n.n.n.n.n.n.",
"n.n.n.n.n.n.n.n.n.n.n.n.n.n.n.n.9.> 2 p d ^ ..X.n.n.n.n.n.n.n.n.",
"n.n.n.n.n.n.n.n.n.n.n.n.n.n.e f.i.>.4.2 v H 1.w.;.X.n.n.n.n.n.n.",
"n.n.n.n.n.n.n.n.n.n.n.n.+ = s @.<.4.2.=.*.e.e.3.<.<.4 n.n.n.n.n.",
"n.n.n.n.n.n.n.n.n.n.n.o + 9 8 u 8.,.0.~ ' -.#.5.&.1 = @ n.n.n.n.",
"n.n.n.n.n.n.n.n.n.n.n.n.n.6 5 z M M T r.y.-.#.F k p - . j n.n.n.",
"n.n.n.n.n.n.n.n.n.n.n.n.n.n.- p p B T A [ ` Y U U N 8 h.n.n.n.n.",
"n.n.n.n.n.n.n.n.n.n.n.n.n.n.< f P +.A Y Z Q U U z N L n.n.n.n.n.",
"n.n.n.n.n.n.n.n.n.n.n.n.n.n.. * k p.u.R E V +.t.C h q n.n.n.n.n.",
"n.n.n.n.n.n.n.n.n.n.v.n.n.n.    # $.z.m / I u.z.V 0 4 n.n.n.n.n.",
"n.n.n.n.n.n.n.n.n.s.x.n.n.n.  $ 3 3 b S m r I S S g , n.n.n.n.n.",
"n.n.n.n.n.n.n.n.a.b.7.c.n.n.X . $ # 0 r q r h d d g e n.n.n.n.n.",
"n.n.n.n.n.n.n.n.n.d.6.6.n.n.n.. . $ # w q r 4 4 7 & n.n.n.n.n.n.",
"n.n.n.n.n.n.n.n.n.| :.n.n.q n.J K $ & @ # % - t u 7 Z n.n.n.n.n.",
"n.n.n.n.n.n.n.n.n.x { D | r i 4 E m m c R m ! k y t I n.x n.n.n.",
"n.n.n.n.n.n.n.n.n.m Q e n.h.g - j | _ &  ._ & O.) E I e - n.n.n.",
"n.n.n.n.n.n.n.n.n.n.) ) n.n.- & & & E | - |  .O.& l q - - n.n.n.",
"n.n.n.n.n.n.n.n.n.n.) ) n.n.g.. & z l & & & & & W x s t o n.n.n.",
"n.n.n.n.n.n.n.n.n.n.) n.k.e   & - g & C o.- | & & I I r o n.n.n.",
"n.n.n.n.n.n.n.n.n.n.| ) n.  q e * e j & & | E r j r l l . ) n.n.",
"n.n.n.n.n.n.n.n.n.n.n.h.n.  C x n.e y W | x r q q - &  .n.n.n.n.",
"n.n.n.n.n.n.n.n.n.n.n.) ) o.  o n.o - n.e n.e l.n.W ) n.n.n.n.n.",
"n.n.n.n.n.n.n.n.n.n.n.n.n.n.n.n.n.j.n._ _ n.O.n.n.n.n.n.n.n.n.n.",
"n.n.n.n.n.n.n.n.n.n.n.n.n.n.n.n.n.n.n.n.n.n.n.n.n.n.n.n.n.n.n.n.",
"n.n.n.n.n.n.n.n.n.n.n.n.n.n.n.n.n.n.n.n.n.n.n.n.n.n.n.n.n.n.n.n."
};
