/* XPM */
static char *_5606_3b46a5298ac52658dd08f146ecf58c2d3fdefd7f52a76e5f1ee43fe906fee016[] = {
/* columns rows colors chars-per-pixel */
"32 32 148 2 ",
"   c #020203",
".  c #0A0603",
"X  c #0B0805",
"o  c #0C0C0C",
"O  c #150E0B",
"+  c #0F1209",
"@  c #1E160F",
"#  c #0F1012",
"$  c #0E171E",
"%  c #151616",
"&  c #1A1512",
"*  c #121A13",
"=  c #1B1B1B",
"-  c #1C171E",
";  c #211308",
":  c #201010",
">  c #211811",
",  c #211D1A",
"<  c #182A1D",
"1  c #382D0F",
"2  c #27201A",
"3  c #2C231B",
"4  c #262E19",
"5  c #282A1C",
"6  c #0C1125",
"7  c #0D1C21",
"8  c #121A20",
"9  c #2F1834",
"0  c #1B2325",
"q  c #1A2C3A",
"w  c #242424",
"e  c #2A2622",
"r  c #262628",
"t  c #2C2B2B",
"y  c #2C2825",
"u  c #342E29",
"i  c #3F332F",
"p  c #37322E",
"a  c #2B2431",
"s  c #202A33",
"d  c #2E2D30",
"f  c #232F39",
"g  c #3C2F36",
"h  c #2C3033",
"j  c #28343D",
"k  c #343434",
"l  c #3C3533",
"z  c #363638",
"x  c #363C38",
"c  c #3C3C3C",
"v  c #3E3935",
"b  c #503C19",
"n  c #47372A",
"m  c #533E2D",
"M  c #423A34",
"N  c #384B2D",
"B  c #354731",
"V  c #304139",
"C  c #55402F",
"Z  c #45413D",
"A  c #4A423A",
"S  c #4A493D",
"D  c #5A4432",
"F  c #52543C",
"G  c #645C2E",
"H  c #614C3B",
"J  c #58602D",
"K  c #2D3740",
"L  c #2D3A43",
"P  c #3F3043",
"I  c #3C3E41",
"U  c #313447",
"Y  c #423F42",
"T  c #473D4B",
"R  c #3F4E49",
"E  c #3E4245",
"W  c #434343",
"Q  c #4B4B4B",
"!  c #494542",
"~  c #504740",
"^  c #5E4B44",
"/  c #464F58",
"(  c #414A51",
")  c #504758",
"_  c #535353",
"`  c #565658",
"'  c #5C5C5C",
"]  c #615F49",
"[  c #695B5A",
"{  c #58685E",
"}  c #62644F",
"|  c #585560",
" . c #695E62",
".. c #626264",
"X. c #676769",
"o. c #6C6C6D",
"O. c #776066",
"+. c #777C65",
"@. c #727272",
"#. c #7B7B7C",
"$. c #946506",
"%. c #846E25",
"&. c #9E8334",
"*. c #FBB51F",
"=. c #C89039",
"-. c #C29E3D",
";. c #DC9A3C",
":. c #DEAB2C",
">. c #D3B32A",
",. c #C3BC3A",
"<. c #EDBF29",
"1. c #E4B42C",
"2. c #F6BE29",
"3. c #E5A831",
"4. c #F8A03A",
"5. c #E8B43A",
"6. c #FFBE3B",
"7. c #EFC31A",
"8. c #FFEB3B",
"9. c #F2E33E",
"0. c #9B8343",
"q. c #A08D41",
"w. c #BC984A",
"e. c #87897B",
"r. c #BB9861",
"t. c #CD9443",
"y. c #D59C41",
"u. c #E7924F",
"i. c #D7AE44",
"p. c #E3B24F",
"a. c #C8AA74",
"s. c #EDA771",
"d. c #F9DF4C",
"f. c #F5E15E",
"g. c #EFE37F",
"h. c #887F84",
"j. c #8E8E8E",
"k. c #939393",
"l. c #A3A3A3",
"z. c #BEBEBE",
"x. c #C5C5C5",
"c. c gray85",
"v. c #FBF3CC",
"b. c #FFF7E4",
"n. c #FFFFEA",
"m. c white",
"M. c #F9FAF5",
"N. c None",
/* pixels */
"N.N.N.N.N.N.N.N.N.N.N.N.N.N.N.N.N.N.N.N.N.N.N.N.N.N.N.N.N.N.N.N.",
"N.N.N.N.N.N.N.N.N.N.N.N.N.c N.N.N.N.N.N.N.N.N.N.N.N.N.N.N.N.N.N.",
"N.N.N.N.N.N.N.N.N.N.N.N.N.k.t N.N.N.N.N.N.N.N.N.N.N.N.N.N.N.N.N.",
"N.N.N.N.N.N.N.N.N.N.N.N.r W Q N.N.N.N.N.N.N.N.N.N.N.N.N.N.N.N.N.",
"N.N.N.N.N.N.N.N.N.N.N.Q t k W l.N.N.N.N.N.N.N.N.N.N.N.N.N.N.N.N.",
"N.N.N.N.N.N.N.N.N.N.x Q d k z _ N.N.N.N.N.N.N.N.N.N.N.N.N.N.N.N.",
"N.N.N.N.N.N.N.N.N.0 z - < c x ! ..N.N.N.N.N.N.N.N.N.N.N.N.N.N.N.",
"N.N.N.N.N.N.N.N.N.a O 7 < z ) { e.N.N.N.N.N.N.N.N.N.N.N.N.N.N.N.",
"N.N.N.N.N.N.N.N.1 q.: 1 a f / O.+.* o N.N.N.N.N.N.N.N.N.N.N.N.N.",
"N.N.N.N.N.N.N.r h.a.<.6.1 b J 3.r.>.+.k N.N.N.N.N.N.N.N.N.N.N.N.",
"N.N.N.N.N.N.* t %.2.6.4.;.t.t.t.5.2.*.5 N.N.N.N.N.N.N.N.N.N.N.N.",
"N.N.N.N.o + 0 9 l 0.1.w.^ [ :.&.7.=.< * o N.N.N.N.N.N.N.N.N.N.N.",
"N.N.N.+ 0 a 6 4 z N N R ;.i.:.&.G l a = X d N.N.N.N.N.N.N.N.N.N.",
"N.N.N.N.6 4 u , a a x ( S } ] T Z W B 9 k.N.N.N.N.N.N.N.N.N.N.N.",
"N.N.N.N.N.N., = l Y $.Z I A ! W W x B U N.N.N.N.N.N.N.N.N.N.N.N.",
"N.N.N.N.N.N.X X & k s.p.W E C $.u.M j w N.N.N.N.N.N.N.N.N.N.N.N.",
"N.N.N.n.N.N.      ; , $.M ( I p.$.m s 3 N.N.N.N.N.N.N.N.N.N.N.N.",
"N.N.f.v.N.N.N.  O , 3 n D v t I H D d > N.N.N.N.N.N.N.N.N.N.N.N.",
"N.d.m.9.b.N.N.X . % & q h w t K f f h r z.I N.N.N.N.N.N.N.N.N.N.",
"N.N.g.8.8.N.N.N.. . + @ w w t 3 3 7 % Y r = Q N.N.N.N.N.N.N.N.N.",
"N.d. .,.8.N.w N.K L # % O O $ 2 y l 8 M w 8 % N.N.N.N.N.N.N.N.N.",
"N.N.c | F | d p e I M M z E Z S v u y I d W o x.N.N.N.N.N.N.N.N.",
"N.N.W W t F k.k = k ..` ! o.' X.#._ W I r , . ` N.N.N.N.N.N.N.N.",
"N.N.M._ Q y N.% = w w Q ......o.#.` z w , %   z.N.N.N.N.N.N.N.N.",
"N.N.N._ _ _ N.j.X % z z Z o.@...` Q c h r o o.N.N.N.N.N.N.N.N.N.",
"N.N.N.` N.x.r X % = d = E @.@...' t I M t o N.N.N.N.N.N.N.N.N.N.",
"N.N.N.' _ `   w r & r k ! d ..W d z t z z   ` N.N.N.N.N.N.N.N.N.",
"N.N.N.N.k.`   E c W w d Q ..x t w w = % o.N.N.N.N.N.N.N.N.N.N.N.",
"N.N.N.N.` ` @.  o   o = N.t N.r c.N.Q Q N.N.N.N.N.N.N.N.N.N.N.N.",
"N.N.N.N.N.N.l._ N.N.l.N.' ' N.#.N.N.N.N.N.N.N.N.N.N.N.N.N.N.N.N.",
"N.N.N.N.N.N.N.N.N.N.N.N.N.N.N.N.N.N.N.N.N.N.N.N.N.N.N.N.N.N.N.N.",
"N.N.N.N.N.N.N.N.N.N.N.N.N.N.N.N.N.N.N.N.N.N.N.N.N.N.N.N.N.N.N.N."
};
