/* XPM */
static char *_7f215453af54fb3ef4e05538ad71388U5nTozYKDlBck7jr[] = {
/* columns rows colors chars-per-pixel */
"32 32 170 2 ",
"   c None",
".  c #030304",
"X  c #0A0603",
"o  c #0C0804",
"O  c #0C0C0C",
"+  c #140E0C",
"@  c #160F07",
"#  c #0F1209",
"$  c #1E160F",
"%  c #111109",
"&  c #120813",
"*  c #0C1014",
"=  c #0E171E",
"-  c #151516",
";  c #191613",
":  c #131B13",
">  c #1B1B1B",
",  c #16171C",
"<  c #211308",
"1  c #201010",
"2  c #221911",
"3  c #211D1A",
"4  c #192A1C",
"5  c #382D0F",
"6  c #27211C",
"7  c #2C231B",
"8  c #272C1B",
"9  c #2B351C",
"0  c #0E1C23",
"q  c #0C1125",
"w  c #121A20",
"e  c #2F1834",
"r  c #1B2327",
"t  c #1A2C3A",
"y  c #242424",
"u  c #2A2622",
"i  c #2C2B2B",
"p  c #272728",
"a  c #342E29",
"s  c #34312E",
"d  c #3F332F",
"f  c #2B2431",
"g  c #2E2D30",
"h  c #242F39",
"j  c #202A33",
"k  c #3C2F36",
"l  c #2C3033",
"z  c #28343D",
"x  c #333334",
"c  c #3C3533",
"v  c #3E3A36",
"b  c #353739",
"n  c #363A3B",
"m  c #3B3B3C",
"M  c #572E0E",
"N  c #4D371F",
"B  c #503C19",
"V  c #47372A",
"C  c #533E2D",
"Z  c #423933",
"A  c #384B2D",
"S  c #304139",
"D  c #354731",
"F  c #55402F",
"G  c #45403D",
"H  c #4C423A",
"J  c #4A493D",
"K  c #5A4432",
"L  c #52543C",
"P  c #645C2E",
"I  c #614C3B",
"U  c #66583E",
"Y  c #58602D",
"T  c #2D3942",
"R  c #3B3E41",
"E  c #363545",
"W  c #413D43",
"Q  c #473D4B",
"!  c #3F4847",
"~  c #434343",
"^  c #494445",
"/  c #4B4B4B",
"(  c #504740",
")  c #5B4A44",
"_  c #504A4C",
"`  c #58504E",
"'  c #424C54",
"]  c #464F58",
"[  c #504758",
"{  c #4A5156",
"}  c #535354",
"|  c #5C5C5D",
" . c #565658",
".. c #615F49",
"X. c #695B5A",
"o. c #58685E",
"O. c #62644F",
"+. c #585560",
"@. c #5E5E60",
"#. c #685D64",
"$. c #626263",
"%. c #676769",
"&. c #6B6B6C",
"*. c #686765",
"=. c #776066",
"-. c #777C65",
";. c #737374",
":. c #7B7B7C",
">. c #846E25",
",. c #AD890E",
"<. c #9E8334",
"1. c #FBB51F",
"2. c #DB843F",
"3. c #C89039",
"4. c #C29E3D",
"5. c #DC9A3C",
"6. c #DEAB2C",
"7. c #D3B32A",
"8. c #C3BC3A",
"9. c #E9BA2B",
"0. c #F8BC2A",
"q. c #E5A831",
"w. c #F8A03A",
"e. c #E8B43A",
"r. c #FFBE3B",
"t. c #EFC31A",
"y. c #F6C834",
"u. c #F2E33E",
"i. c #9B8343",
"p. c #A08D41",
"a. c #BC984A",
"s. c #87897B",
"d. c #BB9861",
"f. c #CD9443",
"g. c #D59C41",
"h. c #E7924F",
"j. c #D7AE44",
"k. c #C8AA74",
"l. c #F8A360",
"z. c #EDA771",
"x. c #CEC954",
"c. c #EFD948",
"v. c #F9DF4C",
"b. c #FCDC55",
"n. c #F5E15E",
"m. c #EFE37F",
"M. c #887F84",
"N. c #8E8E8E",
"B. c #939393",
"V. c #9A9A9A",
"C. c #94A0B4",
"Z. c #A4A4A4",
"A. c #AFAFAF",
"S. c #B4B4B4",
"D. c #BEBEBE",
"F. c #FFE9A9",
"G. c #FEF0BF",
"H. c gray76",
"J. c #D0CAD2",
"K. c #D2D2D2",
"L. c #E4DDD3",
"P. c #FBF3CC",
"I. c #FFF8D7",
"U. c #FFF6D9",
"Y. c gray92",
"T. c #FFF7E4",
"R. c #FFFFEA",
"E. c #FCFBF5",
"W. c #F6F7F9",
"Q. c #FAFCFC",
/* pixels */
"                            S.                                  ",
"                            m                                   ",
"                          ;.i B.                                ",
"                          / ~ m W.                              ",
"                        Z./ x y Z.                              ",
"                        ;._ c s ~                               ",
"                      K.| ~ m w > S.                            ",
"                      A.$.{ s i > }                             ",
"                      s.#.[ b 4 w + J.                          ",
"                    L.-.o.{ h f w 2 i.T.                        ",
"                C.-.7.d.=.U Y B 5 ,.t.k.M.                      ",
"            m X 2 N 1.0.e.q.4.5.0.r.0.>.p ; %                   ",
"          O * - : 8 3.t.y.f.X.) w.9.i.k i r # & O               ",
"          x o O > 4 c P <.6.j.g.a.` A b f : q @ /               ",
"            &.i e f u ~ Q ) ..O.^ ~ n f a 8 {                   ",
"              %.9 E D n W ^ H Q J W W x 3           W.          ",
"              S y g G ) H ^ ~ ~ v Z Z $ X             Q.        ",
"              / 7 z F l.h.C ' Z f.z.M 1 .           R.          ",
"              ;.$ t j K I R T Z K V 3 & .         P.  U.        ",
"                : u l h z b i g t w - X o   W.  T.u.n.v.        ",
"                  - , 7 7 i p u $ $ o O         G.c.F.b.        ",
"              S.G , w u 3 = r @ ; * * T T         x.8.m.        ",
"            D. .m u d s m ^ Z ! c Z 3 7 s i y , L +.*.E.        ",
"          Y.} ~ i a ! ' ] } %. .{ R > > 6 u > > & b _   E.      ",
"          V.~ m p R ~ :.&. .$.@. .$.! > x B.| m p ~ m           ",
"        Q._ 3 x y b } :.&.$.&.$.^ $.x , -         }             ",
"        Y., p y g n ^  .$.%.#. .G b y > X N.      }             ",
"        H.o > - g R _ _ +.%.;.%.~ g i - X p        .            ",
"        Y. .. > b i b D ~ $.N.;.x p > p 6 .       |             ",
"          D.. . ; , y g i m $.^ s y - m ~ .       B.            ",
"            %.  } ^   y p   p y   > O   -         Z.            ",
"                          :.  |   Z.                            "
};
