/* XPM */
static char *_89_896d898428a928608b004825b0b1523fa164e00fc8b1600feea99ffe6726d6bd[] = {
/* columns rows colors chars-per-pixel */
"32 32 174 2 ",
"   c #040404",
".  c #0B0404",
"X  c #0C0C0C",
"o  c #140C09",
"O  c #160A07",
"+  c #1E100F",
"@  c #121209",
"#  c #0E0813",
"$  c #120C10",
"%  c #0C1314",
"&  c #0E1D1E",
"*  c #151616",
"=  c #191313",
"-  c #181B13",
";  c #141B1B",
":  c #1B1B1B",
">  c #151917",
",  c #210A08",
"<  c #381E0F",
"1  c #211310",
"2  c #211811",
"3  c #241B1B",
"4  c #2C1C1A",
"5  c #0D211F",
"6  c #1B2A19",
"7  c #2B231D",
"8  c #2E2E19",
"9  c #2B351C",
"0  c #34351C",
"q  c #0C1A25",
"w  c #121F20",
"e  c #251834",
"r  c #0E2324",
"t  c #1B2626",
"y  c #1A373A",
"u  c #242424",
"i  c #2B2323",
"p  c #262728",
"a  c #2C2B2B",
"s  c #232B2C",
"d  c #342E2D",
"f  c #332726",
"g  c #3F322F",
"h  c #252331",
"j  c #2D2D30",
"k  c #2A2631",
"l  c #3C2F3B",
"z  c #2C3333",
"x  c #243B3D",
"c  c #263537",
"v  c #333333",
"b  c #3D3534",
"n  c #363738",
"m  c #343B3C",
"M  c #3B3B3C",
"N  c #3A3737",
"B  c #57140E",
"V  c #4D271F",
"C  c #502919",
"Z  c #472C2A",
"A  c #54312E",
"S  c #423433",
"D  c #453D3D",
"F  c #4C3B3A",
"G  c #5A3532",
"H  c #613E3B",
"J  c #374432",
"K  c #434B2D",
"L  c #4A453D",
"P  c #544E3C",
"I  c #64492E",
"U  c #60562D",
"Y  c #664A3E",
"T  c #2D3E40",
"R  c #383043",
"E  c #3D3D42",
"W  c #313C47",
"Q  c #423F42",
"!  c #423D4B",
"~  c #2D4243",
"^  c #3B4142",
"/  c #394945",
"(  c #434343",
")  c #4B4B4B",
"_  c #484345",
"`  c #504140",
"'  c #5C4544",
"]  c #564949",
"[  c #58504E",
"{  c #4A4758",
"}  c #425254",
"|  c #4A5555",
" . c #465558",
".. c #535354",
"X. c #565758",
"o. c #5D5D5D",
"O. c #635B4C",
"+. c #695E5A",
"@. c #586858",
"#. c #5E5F60",
"$. c #555660",
"%. c #665B66",
"&. c #695E66",
"*. c #626363",
"=. c #676869",
"-. c #6B6C6C",
";. c #686665",
":. c #77606E",
">. c #7D7B69",
",. c #767A61",
"<. c #737474",
"1. c #797A7B",
"2. c #AD500E",
"3. c #844D25",
"4. c #9E5D34",
"5. c #FB651F",
"6. c #EF761A",
"7. c #DB4C3F",
"8. c #C85D39",
"9. c #F85D3A",
"0. c #DE6A2C",
"q. c #D3762A",
"w. c #C26E3D",
"e. c #DC613C",
"r. c #FA6F29",
"t. c #E9752B",
"y. c #F3792D",
"u. c #E56731",
"i. c #E8773A",
"p. c #FF793B",
"a. c #9B6343",
"s. c #A06C41",
"d. c #BC704A",
"f. c #BB7761",
"g. c #E75C4F",
"h. c #CD6343",
"j. c #D56641",
"k. c #D77A44",
"l. c #F86D60",
"z. c #ED7B71",
"x. c #C38A3A",
"c. c #F68234",
"v. c #F2A43E",
"b. c #88887B",
"n. c #CE9D54",
"m. c #EF9E48",
"M. c #F9A04C",
"N. c #F9A65A",
"B. c #C88C74",
"V. c #EFBB7F",
"C. c #887F87",
"Z. c #939393",
"A. c #9D9D9D",
"S. c #94A6B4",
"D. c #A3A3A3",
"F. c #AEAEAE",
"G. c #B4B4B4",
"H. c gray74",
"J. c #FFCAA9",
"K. c #FFE9A9",
"L. c gray79",
"P. c gray76",
"I. c #CDCAD2",
"U. c #D2D2D2",
"Y. c gray85",
"T. c #E4DAD3",
"R. c #FBE2CC",
"E. c #FFEAD7",
"W. c #FFE8D9",
"Q. c #ECECEC",
"!. c #FFFCEA",
"~. c #F8FCFB",
"^. c #FAF9F5",
"/. c None",
/* pixels */
"/././././././././././././././././.J /./././././././././././././.",
"/./././././././././././././././.1.p A./././././././././././././.",
"/././././././././././././././.p ) Q N ^././././././././././././.",
"/./././././././././././././.) D.) v p D././././././././././././.",
"/././././././././././././.A.) <.) n j ( /./././././././././././.",
"/././././././././././././.<.U.o._ M 3 * G./././././././././././.",
"/./././././././././././.U.%.F.#.) v a : ../././././././././././.",
"/./././././././././././.b.%.b.#.{ n 6 ; # I././././././././././.",
"/././././././././././.T.<.Y.,.@. .c k r 2 s.E./././././././././.",
"/././././././././.S.>.S.a.q.B.&.Y U C < 2.t.B.C././././././././.",
"/./././././././.A.N X 1 C r.r.i.u.w.e.r.p.y.3.u - o 1./././././.",
"/././././././.H.% X % - 7 8.6.c.h.+.' 9.t.a.b a t @ #   /./././.",
"/././././././.v d X @ 6 6 S I 4.0.k.j.d.[ K N h - q O ) /./././.",
"/./././././././.-.-.a e h k Q ! ' O.O.L / m s f 8 | /./././././.",
"/././././././././.9 =.f W J N Q _ F ! L E R l : /././././.~././.",
"/././././././././.u J p v D ' F _ ( ( b D b = . /././.~././.~./.",
"/././././././././.7 _ 4 x A l.g.A } S 7.z.B ,   /./.!././.!././.",
"/././././././././.2 <.1 c s G H ^ ~ S G Z 3 X   /././.R./.W././.",
"/./././././././././.u * u z x x m a z y r * . . /././.v.N.M././.",
"/./././././././././.* > > = 4 4 a u i + + . . /././.K.m.J.N././.",
"/./././././././././.G.D ; w i 3 & t O = % % ~ T /././.n.x.V././.",
"/././././././././.H.X.^ i S d b L D ^ b S 3 i d a u : P $.&.^./.",
"/./././././././.Q..._ a d ^ }  ...;...| ^ : > 3 i : : # m [ /./.",
"/./././././././.A.( M p ^ ( 1.-.o.*.%.X.*.( : v Z.+.N s ( M /./.",
"/./././././././.) 3 n u n | 1.-.*.-.*._ *.v : : Z././.Z.../././.",
"/./././././././.* u u j M _ X.*.=.*.X.D N u :   o././.Z.[ /././.",
"/././././././.P.X : * a E ) | X.=.<.-.( a a >   p o./.L.X./././.",
"/./././././././...  > N a v D ( #.Z.<.v p : u u   /./.L.o./././.",
"/./././././././.P.    > : u a a m ;.) z u * /.( /././.L.Z./././.",
"/././././././././.-./.) /././.u /.p /./.: /././././././.D./././.",
"/./././././././././././././.Y./././././././././././././././././.",
"/./././././././././././././././././././././././././././././././."
};
