/* XPM */
static char *fc251b2bb3154e6592edec505185d45dEE7Ab70RO7QHZzkY[] = {
/* columns rows colors chars-per-pixel */
"32 32 160 2 ",
"   c None",
".  c #030304",
"X  c #0A0603",
"o  c #0C0804",
"O  c #0C0C0D",
"+  c #140E0C",
"@  c #160F07",
"#  c #0F1209",
"$  c #1D150F",
"%  c #120813",
"&  c #091016",
"*  c #151516",
"=  c #191613",
"-  c #131B13",
";  c #111518",
":  c #1B1B1A",
">  c #19191E",
",  c #211308",
"<  c #201010",
"1  c #221911",
"2  c #211D1A",
"3  c #192A1C",
"4  c #382D0F",
"5  c #27211B",
"6  c #2C231B",
"7  c #282A1C",
"8  c #2B351C",
"9  c #0E1C23",
"0  c #0C1125",
"q  c #121A20",
"w  c #2F1834",
"e  c #1B2327",
"r  c #1A2C3A",
"t  c #242424",
"y  c #2A2622",
"u  c #2C2B2B",
"i  c #272728",
"p  c #332C26",
"a  c #342F2B",
"s  c #34312E",
"d  c #3F332F",
"f  c #2B2431",
"g  c #2E2D30",
"h  c #242F39",
"j  c #202A33",
"k  c #3C2F36",
"l  c #2C3033",
"z  c #28343D",
"x  c #333333",
"c  c #3B3632",
"v  c #3E3A36",
"b  c #353739",
"n  c #363A3B",
"m  c #3B3B3B",
"M  c #572E0E",
"N  c #4D371F",
"B  c #503C19",
"V  c #423933",
"C  c #384B2D",
"Z  c #354731",
"A  c #45413D",
"S  c #4C423A",
"D  c #4A493D",
"F  c #5A4432",
"G  c #52543C",
"H  c #645C2E",
"J  c #614C3B",
"K  c #66583E",
"L  c #2D3740",
"P  c #2D3A43",
"I  c #3F3043",
"U  c #3B3E41",
"Y  c #323846",
"T  c #413D43",
"R  c #473D4B",
"E  c #3F4847",
"W  c #424243",
"Q  c #494445",
"!  c #4B4B4B",
"~  c #504740",
"^  c #5B4A44",
"/  c #504A4C",
"(  c #58504E",
")  c #424C54",
"_  c #464F58",
"`  c #504758",
"'  c #4A5156",
"]  c #535354",
"[  c #5C5C5D",
"{  c #565658",
"}  c #615F49",
"|  c #695B5A",
" . c #58685E",
".. c #62644F",
"X. c #585560",
"o. c #5E5E60",
"O. c #685D64",
"+. c #626263",
"@. c #686765",
"#. c #676769",
"$. c #6B6B6D",
"%. c #776066",
"&. c #777C65",
"*. c #737374",
"=. c #7A7A7C",
"-. c #846E25",
";. c #AD890E",
":. c #9E8334",
">. c #FBB51F",
",. c #DB843F",
"<. c #C89039",
"1. c #C29E3D",
"2. c #DC9A3C",
"3. c #DEAB2C",
"4. c #D3B32A",
"5. c #C3BC3A",
"6. c #E4B42C",
"7. c #F8BC2A",
"8. c #E5A831",
"9. c #F8A03A",
"0. c #E8B43A",
"q. c #FFBE3B",
"w. c #EFC31A",
"e. c #F6C834",
"r. c #9B8343",
"t. c #A08D41",
"y. c #BC984A",
"u. c #87897B",
"i. c #BB9861",
"p. c #CD9443",
"a. c #D59C41",
"s. c #E7924F",
"d. c #C8AA74",
"f. c #F8A360",
"g. c #EDA771",
"h. c #CEC954",
"j. c #EFD948",
"k. c #F9DF4C",
"l. c #FCDC55",
"z. c #F5E15E",
"x. c #EFE37F",
"c. c #887F84",
"v. c #8E8E8E",
"b. c #929292",
"n. c #94A0B4",
"m. c #A4A4A4",
"M. c #AFAFAF",
"N. c #B2B2B2",
"B. c #FFE9A9",
"V. c #FEF0BF",
"C. c #D0CAD2",
"Z. c #D2D2D2",
"A. c #E4DDD3",
"S. c #FBF3CC",
"D. c #FFF6D9",
"F. c #FFF7E4",
"G. c #FFFFEA",
"H. c #F6F7F9",
"J. c #F8FFFF",
"K. c #F9FAF5",
/* pixels */
"                  M.                                            ",
"                  E                                             ",
"                  *.u b                                         ",
"                  ! A v m.                                      ",
"                m.! x t W                                       ",
"                *.! b u * N.                                    ",
"                Z.[ Q m u : ]                                   ",
"                M.+.! x 3 > + C.                                ",
"                u.O.` b g 9 = t.d.c.                            ",
"                &. ._ h B B 4 ;.7.-.t - # % X                   ",
"                A.i.%.K 1.2.7.q.r.c u e 0 + !                   ",
"            n.&.4.7.0.8.p.^ 9.6.C n w 3 '                       ",
"          X 1 N >.w.e.p.| a.y.( C f p p             J.          ",
"        m * - 7 <.H :.3.3.} ..D ! I c :           G.            ",
"      O O X & 2 3 y T R ^ V R D I d + X             D.          ",
"        l $.u w f C m A Q E Q v A M $ .         S.z.z.k.        ",
"          $.#.8 Y A ^ S Q E V p.g.5 5 O .   H.  F.j.B.l.        ",
"            m t g A x f.s.U I V F 9 ; X o       V.h.5.x.        ",
"              ! 6 z j F ^ U u g r $ X .           X.+.K.        ",
"              *.1 j l r L b t y $ $ & P L u t > G % m /         ",
"                ; i = 6 6 u e $ : = V 2 y c y 2 : i Q m         ",
"                  * q q i 2 ~ V E c m : = 5 b.[ v i ]           ",
"                  V y V a v ' #.] ' +.E > x         ]           ",
"                [ U a U ) _ [ #.[ { +.c : : v.        {         ",
"              ] Q u E W =.$.+.$.$.+.A b t > . i       [         ",
"              m m v t b ] =.+.#.+.] E a u * t .       b.        ",
"              ! : b t m W { #.+.*.$.x i : i W .       m.        ",
"              : t t g U ! ! { O.v.*.x t * m # O                 ",
"              X : * u u m Z W u m +.Q   : O                     ",
"              { { . : * > t u t   u t                           ",
"                  . . ] Q   t       [                           ",
"                                                                "
};
