/* XPM */
static char *_9050_2324f0b2fdaee82a0c41e23ce5ff67c92af3a59a46a1fa8ed32d3a87549bed49[] = {
/* columns rows colors chars-per-pixel */
"32 32 153 2 ",
"   c #030303",
".  c #0A0603",
"X  c #0C0804",
"o  c #0B0C0C",
"O  c #150E0B",
"+  c #0F1209",
"@  c #111109",
"#  c #1E160F",
"$  c #0F1012",
"%  c #0E171E",
"&  c #151616",
"*  c #1A1512",
"=  c #131A13",
"-  c #1B1B1B",
";  c #1C171E",
":  c #211308",
">  c #201010",
",  c #211811",
"<  c #211D1A",
"1  c #192A1C",
"2  c #382D0F",
"3  c #27201A",
"4  c #2C231B",
"5  c #272C1B",
"6  c #0E1C23",
"7  c #0C1125",
"8  c #121A20",
"9  c #2F1834",
"0  c #1B2325",
"q  c #1A2C3A",
"w  c #242424",
"e  c #2A2622",
"r  c #262628",
"t  c #2C2C2B",
"y  c #2C2825",
"u  c #342E29",
"i  c #3F332F",
"p  c #37322E",
"a  c #2B2431",
"s  c #2E2D30",
"d  c #242F39",
"f  c #202A33",
"g  c #3C2F36",
"h  c #2C3033",
"j  c #28343D",
"k  c #333434",
"l  c #3C3533",
"z  c #353739",
"x  c #363C38",
"c  c #3B3B3B",
"v  c #3E3935",
"b  c #4D371F",
"n  c #503C19",
"m  c #47372A",
"M  c #533E2D",
"N  c #423933",
"B  c #384B2D",
"V  c #354731",
"C  c #304139",
"Z  c #55402F",
"A  c #45413D",
"S  c #4A423A",
"D  c #4A493D",
"F  c #5A4432",
"G  c #52543C",
"H  c #645C2E",
"J  c #614C3B",
"K  c #58602D",
"L  c #2D3740",
"P  c #2D3A43",
"I  c #3F3043",
"U  c #3C3E41",
"Y  c #313447",
"T  c #423D43",
"R  c #473D4B",
"E  c #3F4E49",
"W  c #3E4245",
"Q  c #424343",
"!  c #494445",
"~  c #4B4B4B",
"^  c #504740",
"/  c #5E4B44",
"(  c #464F58",
")  c #414A51",
"_  c #504758",
"`  c #535353",
"'  c #565658",
"]  c #5C5C5D",
"[  c #615F49",
"{  c #695B5A",
"}  c #58685E",
"|  c #62644F",
" . c #585560",
".. c #5E5E60",
"X. c #685D64",
"o. c #626264",
"O. c #676769",
"+. c #6B6B6D",
"@. c #776066",
"#. c #777C65",
"$. c #727273",
"%. c #7B7B7C",
"&. c #946506",
"*. c #846E25",
"=. c #9E8334",
"-. c #FBB51F",
";. c #C89039",
":. c #C29E3D",
">. c #DC9A3C",
",. c #DEAB2C",
"<. c #D3B32A",
"1. c #C3BC3A",
"2. c #EDBF29",
"3. c #E4B42C",
"4. c #F8BC2A",
"5. c #E5A831",
"6. c #F8A03A",
"7. c #E8B43A",
"8. c #FFBE3B",
"9. c #EFC31A",
"0. c #F6C834",
"q. c #FFEB3B",
"w. c #F2E33E",
"e. c #9B8343",
"r. c #A08D41",
"t. c #BC984A",
"y. c #87897B",
"u. c #BB9861",
"i. c #CD9443",
"p. c #D59C41",
"a. c #E7924F",
"s. c #D7AE44",
"d. c #E3B24F",
"f. c #C8AA74",
"g. c #EDA771",
"h. c #F9DF4C",
"j. c #F5E15E",
"k. c #EFE37F",
"l. c #887F84",
"z. c #8E8E8E",
"x. c #939393",
"c. c #A3A3A3",
"v. c #BEBEBE",
"b. c #B2B2B2",
"n. c #C5C5C5",
"m. c #D0CAD2",
"M. c gray85",
"N. c #FBF3CC",
"B. c #FFF7E4",
"V. c #FFFFEA",
"C. c white",
"Z. c #F9FAF5",
"A. c None",
/* pixels */
"A.A.A.A.A.A.A.A.W A.A.A.A.A.A.A.A.A.A.A.A.A.A.A.A.A.A.A.A.A.A.A.",
"A.A.A.A.A.A.A.A.x.y A.A.A.A.A.A.A.A.A.A.A.A.A.A.A.A.A.A.A.A.A.A.",
"A.A.A.A.A.A.A.A.x Q ~ A.A.A.A.A.A.A.A.A.A.A.A.A.A.A.A.A.A.A.A.A.",
"A.A.A.A.A.A.A.A.w k ~ c.A.A.A.A.A.A.A.A.A.A.A.A.A.A.A.A.A.A.A.A.",
"A.A.A.A.A.A.A.A.t z z ~ X.A.A.A.A.A.A.A.A.A.A.A.A.A.A.A.A.A.A.A.",
"A.A.A.A.A.A.A.A.& 3 c Q X.y.A.A.A.A.A.A.A.A.A.A.A.A.A.A.A.A.A.A.",
"A.A.A.A.A.A.A.b.; 1 k _ } #.A.A.A.A.A.A.A.A.A.A.A.A.A.A.A.A.A.A.",
"A.A.A.A.A.A.m.O 6 a d ( @.u.<.#.b A.A.A.A.A.A.A.A.A.A.A.A.A.A.A.",
"A.A.A.A.A.A.r.> 2 2 n K 5.7.4.-.5 = o A.A.A.A.A.A.A.A.A.A.A.A.A.",
"A.A.A.A.A.l.f.2.8.4.>.:.i.0.9.;.1 - X k A.A.A.A.A.A.A.A.A.A.A.A.",
"A.A.A.A.A.r *.2.8.6./ { ,.=.H N a 9 x.A.A.A.A.A.A.A.A.A.A.A.A.A.",
"A.A.A.@ & a N e.3.t.p.s.,.R R N V Y A.A.A.A.A.A.A.A.A.A.A.A.A.A.",
"A.A.o + 0 9 c B B ) D | [ Q T x V k w A.A.A.A.A.A.A.A.A.A.A.A.A.",
"A.A.A.A.7 5 u r x T D R S ! &.a.Q j 4 A.A.A.A.A.A.A.A.A.A.A.A.A.",
"A.A.A.A.A.A.3 g I &.d.Q Q Z d.&.M q , A.A.A.A.A.A.A.A.A.A.A.A.A.",
"A.A.A.A.A.A.. = k g.&.N ) W c G F h e A.A.A.A.A.A.A.A.A.A.A.A.A.",
"A.A.A.A.A.A.    : 3 m F N t z j d & & A.A.A.A.A.A.A.A.A.A.A.A.A.",
"A.A.V.A.A.A.A.  $ 3 6 q h w t 4 4 % 8 S A.A.A.A.A.A.A.A.A.A.A.A.",
"A.A.A.N.A.A.A.X . $ # : w w % - y l y c v.U A.A.A.A.A.A.A.A.A.A.",
"A.A.j.w.B.A.A.A.o X $ , @ @ A ^ N p Q U r - ~ A.A.A.A.A.A.A.A.A.",
"A.h.C.q.q.A.A.A.L L < N v W o.] +.%.` k r ; & A.A.A.A.A.A.A.A.A.",
"A.A.k.1.A.A.w t p e Q o.' X.+.o.O.%.Q c s e X n.A.A.A.A.A.A.A.A.",
"A.A.A.X. .G o.x.p & z o.! o.o.O.o.' ~ U U t   ` A.A.A.A.A.A.A.A.",
"A.A.Z.A Q r A.A.& - w z c C +.$.o.] U z t z   n.A.A.A.A.A.A.A.A.",
"A.A.A.A.` ~ A.A.z.  & t k Q $.x.o.Q t e & & +.A.A.A.A.A.A.A.A.A.",
"A.A.A.A.A.` A.A.r   & - r k ! o.c t w A.~ ` A.A.A.A.A.A.A.A.A.A.",
"A.A.A.A.A.' A.n.  w e & w k ! t A.e M.A.A.A.A.A.A.A.A.A.A.A.A.A.",
"A.A.A.A.A.] ' A.  Q c A.o & A.] A.%.A.A.A.A.A.A.A.A.A.A.A.A.A.A.",
"A.A.A.A.A.A.x.A.$.  o A.A.c.A.] A.A.A.A.A.A.A.A.A.A.A.A.A.A.A.A.",
"A.A.A.A.A.A.c.' A.A.A.A.A.A.A.A.A.A.A.A.A.A.A.A.A.A.A.A.A.A.A.A.",
"A.A.A.A.A.A.A.A.A.A.A.A.A.A.A.A.A.A.A.A.A.A.A.A.A.A.A.A.A.A.A.A.",
"A.A.A.A.A.A.A.A.A.A.A.A.A.A.A.A.A.A.A.A.A.A.A.A.A.A.A.A.A.A.A.A."
};
