/* XPM */
static char *_597_42c68e802285cadb9396e9d4938698436daef8e274e163b7dd508dce20fbd992[] = {
/* columns rows colors chars-per-pixel */
"32 32 164 2 ",
"   c #030404",
".  c #0B0404",
"X  c #0C0C0C",
"o  c #140B09",
"O  c #160A07",
"+  c #1E100F",
"@  c #121209",
"#  c #0E0813",
"$  c #120C10",
"%  c #0F1718",
"&  c #151516",
"*  c #191313",
"=  c #111B10",
"-  c #181813",
";  c #141B1B",
":  c #1B1B1B",
">  c #19171E",
",  c #210A08",
"<  c #381E0F",
"1  c #211310",
"2  c #241B1B",
"3  c #2C1C1A",
"4  c #0D211F",
"5  c #1B2A19",
"6  c #2B241E",
"7  c #2E2E19",
"8  c #34351C",
"9  c #0C1A25",
"0  c #121F20",
"q  c #251834",
"w  c #0E2324",
"e  c #1B2523",
"r  c #1A373A",
"t  c #242424",
"y  c #2B2323",
"u  c #262728",
"i  c #2B2B2B",
"p  c #342E2D",
"a  c #332726",
"s  c #3F322F",
"d  c #252331",
"f  c #2D2D30",
"g  c #2A2631",
"h  c #3C2F3B",
"j  c #2C3333",
"k  c #243B3D",
"l  c #263537",
"z  c #333333",
"x  c #3D3534",
"c  c #363738",
"v  c #343B3C",
"b  c #3B3B3B",
"n  c #3A3737",
"m  c #4D271F",
"M  c #502919",
"N  c #472C2A",
"B  c #54312E",
"V  c #423433",
"C  c #453D3D",
"Z  c #4C3B3A",
"A  c #5A3532",
"S  c #613E3B",
"D  c #3D4731",
"F  c #304133",
"G  c #434B2D",
"H  c #4A453D",
"J  c #544E3C",
"K  c #64492E",
"L  c #60562D",
"P  c #2D3E40",
"I  c #383043",
"U  c #3D3D42",
"Y  c #313C47",
"T  c #423F42",
"R  c #423D4B",
"E  c #2D4243",
"W  c #3B4142",
"Q  c #3F4E44",
"!  c #434343",
"~  c #474348",
"^  c #4B4C4C",
"/  c #494242",
"(  c #504140",
")  c #5C4544",
"_  c #504A4E",
"`  c #4A4758",
"'  c #425254",
"]  c #485557",
"[  c #535354",
"{  c #5C5C5D",
"}  c #615749",
"|  c #645E4F",
" . c #695E5A",
".. c #586858",
"X. c #5E5F60",
"o. c #555660",
"O. c #665B66",
"+. c #695E66",
"@. c #626263",
"#. c #676869",
"$. c #6B6C6D",
"%. c #686665",
"&. c #77606E",
"*. c #7E7869",
"=. c #767A61",
"-. c #737373",
";. c #7A7B7C",
":. c #844D25",
">. c #9E5D34",
",. c #FB651F",
"<. c #EF761A",
"1. c #DB4C3F",
"2. c #C85D39",
"3. c #F85D3A",
"4. c #DE6A2C",
"5. c #D3762A",
"6. c #C26E3D",
"7. c #DC613C",
"8. c #FA6F29",
"9. c #E9752B",
"0. c #F3792D",
"q. c #E56731",
"w. c #E8773A",
"e. c #FF793B",
"r. c #9B6343",
"t. c #A06C41",
"y. c #BC704A",
"u. c #BB7761",
"i. c #E75C4F",
"p. c #CD6343",
"a. c #D56641",
"s. c #D77A44",
"d. c #F86D60",
"f. c #ED7B71",
"g. c #C38A3A",
"h. c #F68234",
"j. c #F2A43E",
"k. c #89867B",
"l. c #CE9D54",
"z. c #EF9E48",
"x. c #F9A04C",
"c. c #F5AC5E",
"v. c #C88C74",
"b. c #EFBB7F",
"n. c #887F87",
"m. c #939393",
"M. c #9A9A9A",
"N. c #A7A7A7",
"B. c #AEAEAE",
"V. c #B4B4B4",
"C. c #BCBCBC",
"Z. c #FFCAA9",
"A. c #FFE9A9",
"S. c gray79",
"D. c #CDCAD2",
"F. c #D2D2D2",
"G. c #E4D7D3",
"H. c #FBE2CC",
"J. c #FFEAD7",
"K. c #FFE8D9",
"L. c #ECECEC",
"P. c #FFFCEA",
"I. c #F8FCFB",
"U. c None",
/* pixels */
"U.U.U.U.U.U.U.U.U.U.U.U.U.U.U.U.U.U.U.U.U.U.U.U.U.U.U.U.U.U.U.U.",
"U.U.U.U.U.U.U.U.U.U.U.U.U.U.U.U.U.U.U.U.U.C U.U.U.U.U.U.U.U.U.U.",
"U.U.U.U.U.U.U.U.U.U.U.U.U.U.U.U.U.U.U.U.-.i U.U.U.U.U.U.U.U.U.U.",
"U.U.U.U.U.U.U.U.U.U.U.U.U.U.U.U.U.U.U.^ ! c U.U.U.U.U.U.U.U.U.U.",
"U.U.U.U.U.U.U.U.U.U.U.U.U.U.U.U.U.U.-.^ z t I.U.U.U.U.U.U.U.U.U.",
"U.U.U.U.U.U.U.U.U.U.U.U.U.U.U.U.U.F.-.^ z i N.U.U.U.U.U.U.U.U.U.",
"U.U.U.U.U.U.U.U.U.U.U.U.U.U.U.U.B.X.~ b b 6 W U.U.U.U.U.U.U.U.U.",
"U.U.U.U.U.U.U.U.U.U.U.U.U.U.U.O.k.O.[ f i : V.U.U.U.U.U.U.U.U.U.",
"U.U.U.U.U.U.U.U.U.U.U.U.U.U.=.G.=...` v 5 > [ U.U.U.U.U.U.U.U.U.",
"U.U.U.U.U.U.U.U.U.U.U.  1 m *.5.u.&.' l u w o F.U.U.U.U.U.U.U.U.",
"U.U.U.U.U.U.U.U.z p & & = 6 ,.8.w.q.L m < < - t.J.U.U.U.U.U.U.U.",
"U.U.U.U.U.U.U.U.U.$.  X 2 5 2.<.h.p.p.7.8.e.9.v.m.U.U.U.U.U.U.U.",
"U.U.U.U.U.U.U.U.U.U.$.i q d x K >.4. .) 3.e.0.:.u U.U.U.U.U.U.U.",
"U.U.U.U.U.U.U.U.U.U.U.8 Y D T T R 4.s.a.y.9.r.s i - o U.U.U.U.U.",
"U.U.U.U.U.U.U.U.U.U.U.t z D c T ~ } | H Q D G b q e @ # X U.U.U.",
"U.U.U.U.U.U.U.U.U.U.~ 3 k H ) Z / Z ~ H U F d a 7 9 O U.U.U.U.U.",
"U.U.U.U.U.U.U.U.U.U.-.1 l B d.i.B W ! n C I h : U.U.U.U.U.U.U.U.",
"U.U.U.U.U.U.U.U.U.U.% u l A A U W ' V 1.f.s * . U.U.U.U.U.U.U.U.",
"U.U.U.U.U.U.U.U.U.U.& & ; l P v p V A N 2 ,     U.U.U.I.U.I.U.U.",
"U.U.U.U.U.U.U.U.C.V.Z 0 w 3 3 i t j r w 2 X   U.U.P.U.U.U.I.U.U.",
"U.U.U.U.U.U.L.[ ~ [ W y s u 2 0 t t 1 + % . . U.U.U.H.U.P.U.U.U.",
"U.U.U.U.U.U.M.H b p p W p v T Z O O * $ . . U.U.U.U.x.c.J.U.U.U.",
"U.U.U.U.U.U.^ : b u W ~ Q ] [ %.W x V 3 E P U.U.U.A.z.Z.x.U.U.U.",
"U.U.U.U.U.U.& t c t z [ ;.$.{ @.[ ] W 0 y p p e U.l.g.b.U.U.U.U.",
"U.U.U.U.U.X : & f b b ~ ;.$.@.-. .[ @.! * t 2 2 ; J o.+.U.U.U.U.",
"U.U.U.U.U.U.  : i W ^ ^ #.#.X.[ ~ @.@.z : z m.@.: $ v %.U.U.U.U.",
"U.U.U.U.U.U.U.  c i c H { @.-.$.W c u : & m.U.c u u ~ _ U.U.U.U.",
"U.U.U.U.U.U.U.U.& & t i U X.m.-.! z i :   { U.U.m.[ U.U.U.U.U.U.",
"U.U.U.U.U.U.U.U.U.U.U.U.i b @.-.p u : &   u  .U.m.[ U.U.U.U.U.U.",
"U.U.U.U.U.U.U.U.U.U.U.u U.u U.z t & U.u t   U.U.S.[ U.U.U.U.U.U.",
"U.U.U.U.U.U.U.U.U.U.U.U.U.U.U.U.: U.U.! U.U.U.S.{ U.U.U.U.U.U.U.",
"U.U.U.U.U.U.U.U.U.U.U.U.U.U.U.U.U.U.U.U.U.U.U.S.U.U.U.U.U.U.U.U."
};
