/* XPM */
static char *_328_cf4cf9e17ca43c9d3710e981a20f6a6b29a7be4805408eb4a1e03dbac8b34c11[] = {
/* columns rows colors chars-per-pixel */
"32 32 158 2 ",
"   c #030303",
".  c #0A0603",
"X  c #0C0804",
"o  c #0C0C0C",
"O  c #150E0B",
"+  c #0F1209",
"@  c #111109",
"#  c #1E160F",
"$  c #0F1012",
"%  c #0E171E",
"&  c #151616",
"*  c #1A1512",
"=  c #131A13",
"-  c #1B1B1B",
";  c #1C171E",
":  c #211308",
">  c #201010",
",  c #221911",
"<  c #211D1A",
"1  c #192A1C",
"2  c #382D0F",
"3  c #27201A",
"4  c #2C231B",
"5  c #272C1B",
"6  c #2B351C",
"7  c #0E1C23",
"8  c #0C1125",
"9  c #121A20",
"0  c #2F1834",
"q  c #1B2325",
"w  c #1A2C3A",
"e  c #242424",
"r  c #2A2622",
"t  c #262628",
"y  c #2C2C2B",
"u  c #2C2825",
"i  c #342E29",
"p  c #3F332F",
"a  c #37322E",
"s  c #2B2431",
"d  c #2E2D30",
"f  c #242F39",
"g  c #202A33",
"h  c #3C2F36",
"j  c #2C3033",
"k  c #28343D",
"l  c #333434",
"z  c #3C3533",
"x  c #353739",
"c  c #3B3B3B",
"v  c #3A3B37",
"b  c #4D371F",
"n  c #503C19",
"m  c #47372A",
"M  c #533E2D",
"N  c #423933",
"B  c #384B2D",
"V  c #354731",
"C  c #304139",
"Z  c #55402F",
"A  c #45413D",
"S  c #4A423A",
"D  c #4A493D",
"F  c #5A4432",
"G  c #52543C",
"H  c #645C2E",
"J  c #614C3B",
"K  c #58602D",
"L  c #2D3740",
"P  c #2D3A43",
"I  c #3F3043",
"U  c #3C3E41",
"Y  c #313447",
"T  c #423D43",
"R  c #473D4B",
"E  c #3F4E49",
"W  c #3E4245",
"Q  c #424343",
"!  c #494445",
"~  c #4B4B4B",
"^  c #504740",
"/  c #5E4B44",
"(  c #464F58",
")  c #414A51",
"_  c #504758",
"`  c #535353",
"'  c #565658",
"]  c #5C5C5D",
"[  c #615F49",
"{  c #695B5A",
"}  c #58685E",
"|  c #62644F",
" . c #585560",
".. c #5E5E60",
"X. c #685D64",
"o. c #626264",
"O. c #676769",
"+. c #6C6C6D",
"@. c #776066",
"#. c #777C65",
"$. c #727273",
"%. c #7B7B7C",
"&. c #946506",
"*. c #846E25",
"=. c #9E8334",
"-. c #FBB51F",
";. c #C89039",
":. c #C29E3D",
">. c #DC9A3C",
",. c #DEAB2C",
"<. c #D3B32A",
"1. c #C3BC3A",
"2. c #EDBF29",
"3. c #E4B42C",
"4. c #F8BC2A",
"5. c #E5A831",
"6. c #F8A03A",
"7. c #E8B43A",
"8. c #FFBE3B",
"9. c #EFC31A",
"0. c #F6C834",
"q. c #FFEB3B",
"w. c #F2E33E",
"e. c #9B8343",
"r. c #A08D41",
"t. c #BC984A",
"y. c #87897B",
"u. c #BB9861",
"i. c #CD9443",
"p. c #D59C41",
"a. c #E7924F",
"s. c #D7AE44",
"d. c #C8AA74",
"f. c #EDA771",
"g. c #F9DF4C",
"h. c #F5E15E",
"j. c #EFE37F",
"k. c #887F84",
"l. c #8E8E8E",
"z. c #939393",
"x. c #9F9F9F",
"c. c #94A0B4",
"v. c #A3A3A3",
"b. c #B1B1B1",
"n. c #BEBEBE",
"m. c #C5C5C5",
"M. c #D0CAD2",
"N. c gray85",
"B. c #E4DDD3",
"V. c #FBF3CC",
"C. c #FFF8D7",
"Z. c #EBEBEB",
"A. c #FFF7E4",
"S. c #FFFFEA",
"D. c #F6F6F6",
"F. c #FBFBFB",
"G. c #F9FAF5",
"H. c None",
/* pixels */
"H.H.H.H.H.H.H.H.H.H.H.H.H.H.H.H.H.H.H.H.H.H.H.b.H.H.H.H.H.H.H.H.",
"H.H.H.H.H.H.H.H.H.H.H.H.H.H.H.H.H.H.H.H.H.H.H.c H.H.H.H.F.H.H.H.",
"H.H.H.H.H.H.H.H.H.H.H.H.H.H.H.H.H.H.H.H.H.H.y z.H.H.H.H.H.H.H.D.",
"H.H.H.H.H.H.H.H.H.H.H.H.H.H.H.H.H.H.H.H.H.~ Q v H.H.H.H.H.H.H.H.",
"H.H.H.H.H.H.H.H.H.H.H.H.H.H.H.H.H.H.H.H.v.! l e H.H.H.H.H.H.H.H.",
"H.H.H.H.H.H.H.H.H.H.H.H.H.H.H.H.H.H.H.] ~ x z y H.H.H.H.H.H.H.H.",
"H.H.H.H.H.H.H.H.H.H.H.F.H.H.H.H.H.H.y.X.! c 1 & H.H.H.H.H.H.H.H.",
"H.H.H.H.H.H.H.H.H.H.D.H.H.H.H.c.H.B.#.} _ x q ; b.H.H.H.H.H.H.H.",
"H.H.H.H.H.H.H.H.H.H.H.H.v.c , m #.<.u.@.( f s 7 O M.H.H.H.H.H.H.",
"H.H.H.H.H.H.H.H.H.H.H.H.o o = 5 -.4.7.5.K n 2 2 , e.C.H.H.H.H.H.",
"H.H.H.H.H.H.H.H.H.H.H.H.l . - 1 ;.9.0.i.:.>.4.8.0.d.k.H.H.H.H.H.",
"H.H.H.H.H.H.H.H.H.H.H.H.H.+.0 s N H =.,.{ / 6.8.2.*.e H.H.H.H.H.",
"H.H.H.H.H.H.H.H.H.F.H.H.H.6 L V N Q R ,.7.i.t.3.e.p y = @ H.H.H.",
"H.H.H.H.H.H.H.H.H.H.H.H.H.e l V c T ! [ } D E B B c s q + o H.H.",
"H.H.H.H.H.H.H.H.H.H.H.H.H.4 k A a.&.! S R D I x s u 5 8 H.H.H.F.",
"H.H.H.H.H.H.H.H.H.H.F.H.H., g M &.a.M Q Q a.&.T h < H.H.H.H.H.H.",
"H.H.H.H.H.H.H.H.H.H.H.F.H.e d F J U U E z &.f.z # . H.H.H.H.H.H.",
"H.H.H.H.H.H.D.H.H.H.H.H.H.& & f L x d h F m 3 :     H.H.H.H.H.H.",
"H.H.H.H.H.H.H.H.H.H.H.H.A 9 % 4 4 y t j w 7 3 o   H.H.H.H.S.H.H.",
"H.H.H.H.H.H.H.H.H.H.c n.U u N u < % e e # # % . . H.H.H.V.H.H.H.",
"H.H.H.H.H.H.H.H.H.~ - y U Q a z ^ A O O * & . . H.H.H.A.w.h.H.H.",
"H.H.H.H.H.H.F.H.Z.& - e x ` %.+.] o.W v N < P L H.H.H.q.q.F.g.H.",
"H.H.H.H.H.H.H.H.m.o e d c Q %.+.o.+...' o.A 4 a y e H.H.1.j.H.H.",
"H.H.H.H.H.H.H.Z.`   y T U ~ ' o.O.o.o.! o.l - l z.X.G ' O.H.H.H.",
"H.H.H.H.H.H.H.H.n.. x y v c ' o.$.O.W v x e - & H.H.y Q A G.H.H.",
"H.H.H.H.H.H.H.H.H.+.& & e l Q o.z.$.A d y & . l.H.H.~ ` H.H.H.H.",
"H.H.H.H.H.H.H.H.H.H.` ~ H.e y c o.! a t - &   t H.H.` H.H.H.H.H.",
"H.H.H.H.H.H.H.H.H.H.H.H.H.N.e H.y ! l e & t e   m.H.' H.H.H.F.H.",
"H.H.H.H.H.H.H.H.H.H.H.H.H.H.%.H.} H.& o H.c Q   H.' ] H.H.F.H.H.",
"H.H.H.H.H.H.H.H.H.H.H.H.H.H.H.H.H.H.v.H.H.@   $.H.z.H.H.H.H.H.H.",
"H.H.H.H.H.H.H.H.H.H.H.H.H.H.H.H.H.H.H.H.H.H.H.H.' v.H.H.H.F.H.H.",
"H.H.H.H.H.H.H.H.H.H.H.H.H.H.H.H.H.H.H.H.H.H.H.H.H.H.H.H.H.H.H.H."
};
