/* XPM */
static char *_9293_546036721e34c15bc44cfd311586757f4a9829f6ec0c1a8f6544a8ab7df6bac2[] = {
/* columns rows colors chars-per-pixel */
"32 32 145 2 ",
"   c #020303",
".  c #0A0603",
"X  c #0C0804",
"o  c #0B0C0C",
"O  c #150E0B",
"+  c #0F1209",
"@  c #111109",
"#  c #1E160F",
"$  c #0F1012",
"%  c #0E171E",
"&  c #151616",
"*  c #1A1512",
"=  c #131A13",
"-  c #1B1B1B",
";  c #1C171E",
":  c #211308",
">  c #201010",
",  c #211811",
"<  c #211D1A",
"1  c #192A1C",
"2  c #382D0F",
"3  c #27201A",
"4  c #2C231B",
"5  c #262E19",
"6  c #282A1C",
"7  c #0D1723",
"8  c #121A20",
"9  c #2F1834",
"0  c #1B2325",
"q  c #1A2C3A",
"w  c #242424",
"e  c #2A2622",
"r  c #262628",
"t  c #2C2C2C",
"y  c #2C2825",
"u  c #342F2B",
"i  c #37322E",
"p  c #3F332F",
"a  c #2A2431",
"s  c #202A33",
"d  c #2E2D30",
"f  c #232F39",
"g  c #3C2F36",
"h  c #2C3033",
"j  c #28343D",
"k  c #343434",
"l  c #3C3533",
"z  c #363638",
"x  c #363C38",
"c  c #3B3B3C",
"v  c #3E3935",
"b  c #503C19",
"n  c #47372A",
"m  c #533E2D",
"M  c #423A34",
"N  c #384B2D",
"B  c #354731",
"V  c #304139",
"C  c #55402F",
"Z  c #45413D",
"A  c #4A423A",
"S  c #4A493D",
"D  c #5A4432",
"F  c #52543C",
"G  c #645C2E",
"H  c #614C3B",
"J  c #58602D",
"K  c #2D3740",
"L  c #2D3A43",
"P  c #313447",
"I  c #3F3043",
"U  c #3C3E41",
"Y  c #423F42",
"T  c #473D4B",
"R  c #3F4E49",
"E  c #3E4245",
"W  c #424243",
"Q  c #4B4B4B",
"!  c #494542",
"~  c #504740",
"^  c #5E4B44",
"/  c #464F58",
"(  c #414A51",
")  c #504758",
"_  c #535353",
"`  c #565658",
"'  c #5C5C5D",
"]  c #615F49",
"[  c #695B5A",
"{  c #58685E",
"}  c #62644F",
"|  c #585560",
" . c #695E62",
".. c #626264",
"X. c #6B6B6D",
"o. c #776066",
"O. c #777C65",
"+. c #727273",
"@. c #7B7B7C",
"#. c #946506",
"$. c #846E25",
"%. c #9E8334",
"&. c #FBB51F",
"*. c #C89039",
"=. c #C29E3D",
"-. c #DC9A3C",
";. c #DEAB2C",
":. c #D3B32A",
">. c #C3BC3A",
",. c #EDBF29",
"<. c #E4B42C",
"1. c #F6BE29",
"2. c #E5A831",
"3. c #F8A03A",
"4. c #E8B43A",
"5. c #FFBE3B",
"6. c #EFC31A",
"7. c #FFEB3B",
"8. c #F2E33E",
"9. c #9B8343",
"0. c #A08D41",
"q. c #BC984A",
"w. c #87897B",
"e. c #BB9861",
"r. c #CD9443",
"t. c #D59C41",
"y. c #E7924F",
"u. c #D7AE44",
"i. c #E3B24F",
"p. c #C8AA74",
"a. c #EDA771",
"s. c #F9DF4C",
"d. c #F5E15E",
"f. c #EFE37F",
"g. c #887F84",
"h. c #8E8E8E",
"j. c #939393",
"k. c gray63",
"l. c gray78",
"z. c gray85",
"x. c #FBF3CC",
"c. c #FFF7E4",
"v. c #FFFFEA",
"b. c white",
"n. c None",
/* pixels */
"n.n.n.n.n.n.n.n.n.n.n.n.n.n.n.n.n.n.n.n.n.n.n.n.n.n.n.n.n.n.n.n.",
"n.n.n.n.n.n.n.n.n.n.n.n.n.n.n.n.c n.n.n.n.n.n.n.n.n.n.n.n.n.n.n.",
"n.n.n.n.n.n.n.n.n.n.n.n.n.n.n.n.j.t n.n.n.n.n.n.n.n.n.n.n.n.n.n.",
"n.n.n.n.n.n.n.n.n.n.n.n.n.n.n.r W Q n.n.n.n.n.n.n.n.n.n.n.n.n.n.",
"n.n.n.n.n.n.n.n.n.n.n.n.n.n.n.t z Q k.n.n.n.n.n.n.n.n.n.n.n.n.n.",
"n.n.n.n.n.n.n.n.n.n.n.n.n.n.n.t z k _ n.n.n.n.n.n.n.n.n.n.n.n.n.",
"n.n.n.n.n.n.n.n.n.n.n.n.n.n.- 0 v x ! | n.n.n.n.n.n.n.n.n.n.n.n.",
"n.n.n.n.n.n.n.n.n.n.n.n.n.@ 8 0 z ) { w.n.n.n.n.n.n.n.n.n.n.n.n.",
"n.n.n.n.n.n.n.n.n.n.n.n.0., 2 a f / o.O.n.n.n.n.n.n.n.n.n.n.n.n.",
"n.n.n.n.n.n.n.n.n.n.r g.p.,.5.2 b J ;.e.:.O.n.n.n.n.n.n.n.n.n.n.",
"n.n.n.n.n.n.n.n.@ = t $.,.5.3.-.=.r.*.4.1.1.6 n.n.n.n.n.n.n.n.n.",
"n.n.n.n.n.n.n.o + 0 9 p 9.;.q.^ [ ;.%.&.*.5 = o n.n.n.n.n.n.n.n.",
"n.n.n.n.n.n.n.n.n.7 5 x N N R -.u.;.%.G l a - X k n.n.n.n.n.n.n.",
"n.n.n.n.n.n.n.n.n.n.- a a V R S } } T M Y B 9 j.n.n.n.n.n.n.n.n.",
"n.n.n.n.n.n.n.n.n.n.< g I #.S T S ! Y Y x B P n.n.n.n.n.n.n.n.n.",
"n.n.n.n.n.n.n.n.n.n.X * l a.i.E Y C #.y.Z j w n.n.n.n.n.n.n.n.n.",
"n.n.n.n.n.n.v.n.n.n.    : 3 #.M ( U i.#.m q 4 n.n.n.n.n.n.n.n.n.",
"n.n.n.n.n.d.x.n.n.n.  $ 3 3 n D M t U H D h , n.n.n.n.n.n.n.n.n.",
"n.n.n.n.s.b.8.c.n.n.X . & # q h w t K q f h y n.n.n.n.n.n.n.n.n.",
"n.n.n.n.n.f.7.7.n.n.n.  X $ : e w t 4 4 8 & n.n.n.n.n.n.n.n.n.n.",
"n.n.n.n.n. .>.n.n.0 n.K L $ * @ O 7 < y M % M n.n.n.n.n.n.n.n.n.",
"n.n.n.n.n.W | F ' u i y E M M v E M ! l u y U n.Y n.n.n.n.n.n.n.",
"n.n.n.n.n.c ! r n.j.u - z ..` n.+.' n.@._ W U r - n.n.n.n.n.n.n.",
"n.n.n.n.n.n._ _ n.n.& - w n.! ......X.@.n.z w - & n.n.n.n.n.n.n.",
"n.n.n.n.n.n._ _ n.n.h.  & x z W X.n...` Q c t r o n.n.n.n.n.n.n.",
"n.n.n.n.n.n.` n.l.y   - - d n.W +.+...' n.Y U d o n.n.n.n.n.n.n.",
"n.n.n.n.n.n.' _ n.  w r & y k ! n...E t z t x l   ` n.n.n.n.n.n.",
"n.n.n.n.n.n.n.j.n.  W c n.r d Q ..c y w w - & X.n.n.n.n.n.n.n.n.",
"n.n.n.n.n.n.n.` ` +.  o n.o - n.y n.r z.n.Q Q n.n.n.n.n.n.n.n.n.",
"n.n.n.n.n.n.n.n.n.n.n.n.n.k.n.' ' n.@.n.n.n.n.n.n.n.n.n.n.n.n.n.",
"n.n.n.n.n.n.n.n.n.n.n.n.n.n.n.n.n.n.n.n.n.n.n.n.n.n.n.n.n.n.n.n.",
"n.n.n.n.n.n.n.n.n.n.n.n.n.n.n.n.n.n.n.n.n.n.n.n.n.n.n.n.n.n.n.n."
};
