/* XPM */
static char *_67bd5c11f7849c1c5558897ef314a74LjweRUOrdzsQmfCx[] = {
/* columns rows colors chars-per-pixel */
"32 32 84 1 ",
"  c None",
". c #5C9609",
"X c #6AAF04",
"o c #68A712",
"O c #78B613",
"+ c #7AC108",
"@ c #85CF14",
"# c #87C51C",
"$ c #80CB26",
"% c #87C92E",
"& c #8DDC20",
"* c #83C530",
"= c #92CD38",
"- c #93CB3C",
"; c #9CDB3F",
": c #8ABB40",
"> c #8FB755",
", c #95AD70",
"< c #8DC940",
"1 c #93D142",
"2 c #9EDC43",
"3 c #9CD844",
"4 c #9DD946",
"5 c #97D34E",
"6 c #99D448",
"7 c #96C05A",
"8 c #A2DD4E",
"9 c #A3DF56",
"0 c #9FE045",
"q c #A3E748",
"w c #A4E351",
"e c #A3CB62",
"r c #A4D960",
"t c #ABD568",
"y c #AFDD69",
"u c #AFDF6E",
"i c #ABCB70",
"p c #ABCC7B",
"a c #ADD570",
"s c #ADD17C",
"d c #AFD878",
"f c #B4D67C",
"g c #B3DB79",
"h c #B3DD7A",
"j c #B3D87C",
"k c #B9DF7D",
"l c #AEE266",
"z c #B0EC60",
"x c #B1E865",
"c c #B6E76F",
"v c #B4EB68",
"b c #B4E075",
"n c #B5E376",
"m c #BBEF77",
"M c #B8E27A",
"N c #BCEA7B",
"B c #BCEC7D",
"V c #B7F170",
"C c #ADD181",
"Z c #B2D087",
"A c #BBDB83",
"S c #BEDA86",
"D c #BBDD85",
"F c #BDD997",
"G c #BFE586",
"H c #BFF381",
"J c #BFE791",
"K c #C1EF85",
"L c #C1E68C",
"P c #C5EB8D",
"I c #C2F484",
"U c #CDEF9D",
"Y c #C9F197",
"T c #CBDFAB",
"R c #D4ECAF",
"E c #D4F4AE",
"W c #DAECBB",
"Q c #D7F5B5",
"! c #D9EBC3",
"~ c #E3F3CB",
"^ c #E5F5CD",
"/ c #F8FBF3",
"( c #FCFEF8",
") c white",
/* pixels */
"                                ",
"                                ",
"                                ",
"                                ",
"                                ",
"                                ",
"                                ",
"                                ",
"                                ",
"                                ",
"                                ",
"                                ",
"                      s         ",
"                %               ",
"            #         P         ",
"                                ",
"                                ",
"                   F  h         ",
"                                ",
"                           a    ",
"               ~  g     ^m -    ",
"           uvT, )i V      q4    ",
"          $      /  EOAK        ",
"               CC  @            ",
"        Jy  5 co   DY           ",
"            Q9  !nU;M l  R      ",
"     (    2 t  efn4N8G  &0W     ",
"       dx=I k B . S >r6=XH      ",
"        1+ jLwZ7 p:*z<          ",
"                                ",
"                                ",
"                                "
};
