/* XPM */
static char *pixil_frame_0[] = {
/* columns rows colors chars-per-pixel */
"32 32 81 1 ",
"  c #252211",
". c #302719",
"X c #704C16",
"o c #624A24",
"O c #7E5927",
"+ c #67513A",
"@ c #92611C",
"# c #AD6D11",
"$ c #BB7912",
"% c #AA7828",
"& c #B37D2F",
"* c #BA7D2B",
"= c #C47D17",
"- c #A87E40",
"; c #C4810F",
": c #D5840F",
"> c #DF9416",
", c #F79810",
"< c #FC9E12",
"1 c #FB9D14",
"2 c #F99E16",
"3 c #F0961B",
"4 c #FA9A18",
"5 c #FB9A19",
"6 c #FC9E1A",
"7 c #FB9E1C",
"8 c #F89E1E",
"9 c #FBA013",
"0 c #F9A018",
"q c #FBA318",
"w c #F8A11B",
"e c #FAA41B",
"r c #FFAD1F",
"t c #C28438",
"y c #D28C3C",
"u c #F19E39",
"i c #F1A020",
"p c #FBA121",
"a c #FDA320",
"s c #F8A422",
"d c #F2A32D",
"f c #FBA72F",
"g c #FFA52E",
"h c #FBAF2E",
"j c #E7A03C",
"k c #F8A430",
"l c #FCA433",
"z c #FBA634",
"x c #FBA636",
"c c #FEA436",
"v c #FDAB32",
"b c #F4A43D",
"n c #F8A53A",
"m c #FAA53B",
"M c #FBA53B",
"N c #FDA63B",
"B c #FEA73A",
"V c #FFA33C",
"C c #FDA73D",
"Z c #FFA63C",
"A c #FBAB3B",
"S c #FDA83A",
"D c #FCAC39",
"F c #FBAE3C",
"G c #DBAC5C",
"H c #F5A240",
"J c #FDAB45",
"K c #FDA648",
"L c #FFA64D",
"P c #FEA84D",
"I c #FDAA4C",
"U c #F7AB56",
"Y c #F1B259",
"T c #F8B25C",
"R c #F7B85B",
"E c #E7B066",
"W c #FDBD6A",
"Q c #FBBE6F",
"! c #F1B779",
"~ c #F8CC93",
"^ c None",
/* pixels */
"^^^^^^^^^^^^^^^^^^^^^^^^^^^^^^^^",
"^^^^^^^^^^^^^^^^^^^^^^^^^^^^^^^^",
"^^^^^^^^^^^^^^^^^^^^^^^^^^^^^^^^",
"^^^^^^^^^^^^^^^^^^^^^^^^^^^^^^^^",
"^^^^^^^^^^^^^^^^^^^^^^^^^^^^^^^^",
"^^^^^^^^^^^^^^^^^^^^^^^^^^^^^^^^",
"^^^^^^^^^^^^^^^^^^^^^^^^^^^^^^^^",
"^^^^^^^^^^^^^^^^^^^^^^^^^^^^^^^^",
"^^^^^^^^^^^^^^^^^^^^^^^^^^^^^^^^",
"^^^^^^^^^^^^^^^^^^^^^^^^^^^^^^^^",
"^^^^^^^^^^^^^^^^^^^^^^^^^^^^^^^^",
"^^^^^^^^^^^^^^^^^^^^^^^^^^^^^^^^",
"^^^^^^^^^^^^^^^^^^^^^^^^^^^^^^^^",
"^^^^^^^^^^^^^^^^^^^^^^^^^^^^^^^^",
"^^^^^^^^^^^^^^^^^^^^^^^^^^^^^^^^",
"^^^^^^^^^^^^^^^^^^^^^^^^^^^^^^^^",
"^^^^^^^^^^^^^^^^^^^^^^^^^^^^^^^^",
"^^^^^^^^^^^^^r^^^^9^^^^^^^^^^^^^",
"^^^^^^^^^^^G^!c>^b^u^^^^^^^^^^^^",
"^^^^^^^^y^W^a^&^^^7^R^^^%^^^^^^^",
"^^^^^^^9^0^^^^^^^^^^^T^h^ ^^^^^^",
"^^^^^^^^^^^^^^K^,^L^e^q^~^+^^^^^",
"^^^^^p^F^J^S^g^5^^^^^^^^^^^Y^^^^",
"^^^^^^t^^^o^B^*^^^^^2^2^j^.^$^^^",
"^^^^^Q^S^^^s^Z^^^^^^^;^^^6^^^#^^",
"^^^^^^^^c^S^^^^^^^^^^^k^^^^^^^^^",
"^^^^^:^^^c^I^x^I^^^D^^viOnH@X^^^",
"^^^^^^U^k^0^4^n^^^-^A^^^7^E^^^^^",
"^^^^^^^d^^^=^^^Z^^^3^^^M^^^^^^^^",
"^^^^^^^^^^^^^^^^^^^^^^^^^^^^^^^^",
"^^^^^^^^^^^^^^^^^^^^^^^^^^^^^^^^",
"^^^^^^^^^^^^^^^^^^^^^^^^^^^^^^^^"
};
