/* XPM */
static char *d9a51cff5bf44599c101e6f6657ba97564g0kWAKeJ92S9GT[] = {
/* columns rows colors chars-per-pixel */
"32 32 146 2 ",
"   c None",
".  c #010100",
"X  c #0A0C01",
"o  c #0E1101",
"O  c #171B02",
"+  c #222B03",
"@  c #364805",
"#  c #575B0B",
"$  c #4A4E15",
"%  c #466505",
"&  c #4E6307",
"*  c #4B6C02",
"=  c #486808",
"-  c #4C7500",
";  c #4F7A01",
":  c #517703",
">  c #527D02",
",  c #597D07",
"<  c #537A0E",
"1  c #456D14",
"2  c #527B15",
"3  c #5E7F10",
"4  c #62660B",
"5  c #2A2A42",
"6  c #3B3C46",
"7  c #558302",
"8  c #5A8401",
"9  c #578800",
"0  c #5B8B01",
"q  c #568409",
"w  c #598408",
"e  c #5C8C0C",
"r  c #5E9202",
"t  c #5F910A",
"y  c #578014",
"u  c #5F9010",
"i  c #638D01",
"p  c #65840A",
"a  c #698F09",
"s  c #629500",
"d  c #6B9502",
"f  c #659A00",
"g  c #6B9D01",
"h  c #61910A",
"j  c #779607",
"k  c #739B03",
"l  c #73960C",
"z  c #7A9F09",
"x  c #618E10",
"c  c #629512",
"v  c #689013",
"b  c #709612",
"n  c #6BA200",
"m  c #75A301",
"M  c #75AC00",
"N  c #7DAA02",
"B  c #77A40F",
"V  c #7EAA0B",
"C  c #7BB400",
"Z  c #7FB800",
"A  c #73A010",
"S  c #8B930D",
"D  c #9A9E09",
"F  c #83A404",
"G  c #85AD03",
"H  c #8DAD0F",
"J  c #86B405",
"K  c #8CB504",
"L  c #82BB00",
"P  c #99B503",
"I  c #93BC05",
"U  c #99BB03",
"Y  c #9BBB0F",
"T  c #85A810",
"R  c #A0BF04",
"E  c #ABB50C",
"W  c #B2B81A",
"Q  c #888F26",
"!  c #86C200",
"~  c #89C400",
"^  c #8EC901",
"/  c #9EC106",
"(  c #91C900",
")  c #99CF00",
"_  c #9FD201",
"`  c #A3C506",
"'  c #A3CC04",
"]  c #A9CB07",
"[  c #A5C30C",
"{  c #AAC50F",
"}  c #AFC80F",
"|  c #B1CC05",
" . c #B1CC0A",
".. c #A4D600",
"X. c #A7D800",
"o. c #B7D304",
"O. c #BAD406",
"+. c #BFD807",
"@. c #B3D008",
"#. c #AEC417",
"$. c #BCC11A",
"%. c #C6CE0F",
"&. c #C1DE03",
"*. c #CFD30E",
"=. c #C5DB09",
"-. c #C9DC0D",
";. c #C7D71A",
":. c #C2E003",
">. c #CFE804",
",. c #CDE209",
"<. c #D3E607",
"1. c #DBEC04",
"2. c #D2E609",
"3. c #D6E80A",
"4. c #DAEB09",
"5. c #D9E210",
"6. c #E3ED0D",
"7. c #EBEE0D",
"8. c #E6F20A",
"9. c #EAF409",
"0. c #F4FA0B",
"q. c #FFFF0A",
"w. c #FDFE0B",
"e. c #FBFD0C",
"r. c #FBFC0C",
"t. c #FCFE0C",
"y. c #FDFE0C",
"u. c #FEFF0C",
"i. c #FFFF0C",
"p. c #FFFF0D",
"a. c #FDFE0E",
"s. c #EBF218",
"d. c #F3FA11",
"f. c #F4F71D",
"g. c #F6F81E",
"h. c #F8FA1F",
"j. c #D3DE24",
"k. c #E6EC27",
"l. c #E8EE25",
"z. c #E9EF29",
"x. c #EFF325",
"c. c #EFF42B",
"v. c #EEF32D",
"b. c #F0F421",
"n. c #F4F737",
"m. c #F4F837",
/* pixels */
"                                                                ",
"                    m.                  m.                      ",
"                      v.                v.                      ",
"                      k.v.x.f.h.g.b.z.l.                        ",
"                      s.u.u.e.u.u.e.u.d.j.                      ",
"                    6.5.W 6.u.u.a.0.$.%.8.;.                    ",
"                  -.1.Q 5 D u.u.u.*.6 $ 4.,.#.                  ",
"                [ +.2.E # *.q.q.u.7.4 S 3.=.}                   ",
"                `  .=.4.0.0.e.e.e.0.0.6.-. .]                   ",
"                K / O.<.8.0.e.e.w.0.9.3.=.` I k                 ",
"            K   2 1 2 v T Y [ } { Y H b 2 1 1     '             ",
"          <.o.N I K G A A A A A B B B B V J I N R 1.U           ",
"        F 1.| k C Z ^ ) _ _ ........_ _ ( ! Z g P 1.P           ",
"        k &.U d M C Z L ! ! ~ ~ ! ! ! L Z M M s F :.G           ",
"        d ) J i f n M C Z Z Z Z Z Z C C M M g s k _ N           ",
"        d ^ G 0 r f n M M M M C M M M M n f r 0 k ( m           ",
"        i L m 0 r r r f n n n n n n n f s r r 9 d L g           ",
"        0 C m 8 0 0 r r r r s s s s r r r 0 r 7 s C g           ",
"        8 M g 8 9 9 9 r r r r r r r r 0 0 9 7 7 s C f           ",
"        8 M f > 7 7 7 9 9 r t r t r r 0 7 7 7 > 8 M s           ",
"          9 ; : 7 ; 7 7 7 e t t t t e 7 7 ; ; > - 8 -           ",
"                - - - 7 q e e e e e q q 7 ; ; >                 ",
"                - - - q w e e c u t e q ; ; - >                 ",
"                  ; ; ; q e c c c u e q > >                     ",
"                      % > : w h x < , * =                       ",
"                      , i ,       3 i 8                         ",
"                      a z k       p m k                         ",
"                      z K G       l J G @                       ",
"                      p I j       & U T +                       ",
"                      X + o . . . . + O                         ",
"                                                                ",
"                                                                "
};
