/* XPM */
static char *under_text_4[] = {
/* columns rows colors chars-per-pixel */
"21 21 2 1 ",
"  c #0595FC",
". c None",
/* pixels */
"... .. .  ..  . .. ..",
".. ..            .. .",
". ..  .        .  .. ",
". .                . ",
" . ..            .. .",
". . .            . ..",
".. .              . .",
" . .              . .",
". . .            . . ",
".. ..            .. .",
". ..              .. ",
" . .              . .",
". . .            . . ",
". . .            . . ",
".. .              . .",
" . .              . .",
". . .            . . ",
"... .            . ..",
" . .              . .",
". . . .        . . ..",
".. . .  . .. .  . ..."
};
