/* XPM */
static char *cde40d15969d4bd3fbc7373e291daab7wLCQSWeElS39zugw[] = {
/* columns rows colors chars-per-pixel */
"32 32 139 2 ",
"   c None",
".  c #030301",
"X  c #130C07",
"o  c #120D09",
"O  c #1B150E",
"+  c #21150C",
"@  c #241A0F",
"#  c #2C1C0E",
"$  c #241C12",
"%  c #2C1E11",
"&  c #211E1A",
"*  c #27231E",
"=  c #2D261A",
"-  c #392211",
";  c #3A2C1B",
":  c #3F301C",
">  c #302B24",
",  c #3D2F21",
"<  c #3A332B",
"1  c #43321F",
"2  c #51341C",
"3  c #5E3B1F",
"4  c #433622",
"5  c #483721",
"6  c #473A23",
"7  c #4C3922",
"8  c #543C22",
"9  c #583F23",
"0  c #544227",
"q  c #54432A",
"w  c #5D4528",
"e  c #484133",
"r  c #534734",
"t  c #5B4B33",
"y  c #5E503A",
"u  c #664E2E",
"i  c #6D4C2B",
"p  c #734D2B",
"a  c #73512D",
"s  c #7A522D",
"d  c #604F36",
"f  c #6D5533",
"g  c #675739",
"h  c #725430",
"j  c #7D5731",
"k  c #735B35",
"l  c #7C5A33",
"z  c #7E5F38",
"x  c #7E6137",
"c  c #7A633D",
"v  c #5E5741",
"b  c #625A43",
"n  c #786441",
"m  c #7D6941",
"M  c #825E35",
"N  c #876136",
"B  c #86643A",
"V  c #8B653A",
"C  c #86693E",
"Z  c #8D6A3E",
"A  c #906539",
"S  c #916C3E",
"D  c #9B753F",
"F  c #A27B3F",
"G  c #826940",
"H  c #8D6E41",
"J  c #936E41",
"K  c #877541",
"L  c #8C7442",
"P  c #85744F",
"I  c #8C7348",
"U  c #957243",
"Y  c #997544",
"T  c #9D7946",
"R  c #9D7C4A",
"E  c #A37D43",
"W  c #A27E4A",
"Q  c #9D804C",
"!  c #A58247",
"~  c #AA8544",
"^  c #AD8947",
"/  c #A3824C",
"(  c #A9874A",
")  c #AC8B4C",
"_  c #B28E47",
"`  c #B08F4F",
"'  c #B4934E",
"]  c #B8954C",
"[  c #A98751",
"{  c #AD8D52",
"}  c #AE9153",
"|  c #AD975E",
" . c #B49453",
".. c #B69B57",
"X. c #BB9C54",
"o. c #B3965A",
"O. c #B69A5A",
"+. c #BD9F59",
"@. c #B99E5D",
"#. c #B99C59",
"$. c #BFA054",
"%. c #BFA055",
"&. c #BFA056",
"*. c #BFA158",
"=. c #BFA259",
"-. c #BEA259",
";. c #BFA35B",
":. c #BCA35C",
">. c #BFA35C",
",. c #BDA35F",
"<. c #BFA45D",
"1. c #BDA45F",
"2. c #BCA15C",
"3. c #C0A156",
"4. c #C0A256",
"5. c #C2A559",
"6. c #C1A65B",
"7. c #C4A659",
"8. c #C1A55C",
"9. c #C2A65C",
"0. c #C6A85B",
"q. c #C2A85C",
"w. c #C0A85F",
"e. c #C5AA5D",
"r. c #C6AA5D",
"t. c #C4AA5E",
"y. c #C5AA5E",
"u. c #C7AA5F",
"i. c #C7AC5E",
"p. c #C1A660",
"a. c #C3AA61",
"s. c #C5AA60",
"d. c #C6AB60",
"f. c #C6AC60",
"g. c #C7AD61",
"h. c #C7AE62",
"j. c #C9AF62",
"k. c #CCAF62",
"l. c #D1B969",
/* pixels */
"                                                                ",
"                                                                ",
"                v b                                             ",
"          P | O.} } Q f <                                       ",
"      > I O.) `  .} ) ! k &                                     ",
"      m [ !  .8.h.j.-...o.R n t                                 ",
"    = T T ) +.4...'  . .} }  .` n e                             ",
"    : T R U !  .^ { {  .k.K K i. .[ g                           ",
"    5 W [ z G T T !  .u.l.<.:.*.! C a 1 *                       ",
"    ; T Y T V l J T ^ +.*.&.X.) ( / Y T T c g                   ",
"    $ Z Y N j N D D ! ^ ^ ^ ) } 2.:.p.O.) ) ^ I r               ",
"    . z Y M M U U Y W W W T R o.1.w.q.h.q.L k  . .g             ",
"      w Y j U U S D U U S U / O.<.i.u.e.7.7.X.] )  .t           ",
"      @ M l H U H Z J J S J Q { }  .$.X.X.X.3.$.] _ T ,         ",
"        % h J C U J J J i 8 R R Y / ^ _ ] 4.u.i.u.*. .z &       ",
"          7 / R R T J J Z G / / / ! ! ^ ' $.8.u.j.s... .k       ",
"          O U [ W R J H W { / / / [ / / ( ' 9.u.-.<... .U       ",
"            f [ R U J J I R R R Q / ! Q / !  .>.2.#.} U Y $     ",
"            6 [ J J H Y R U Y R R R U R k z ` { } { R U B $     ",
"              z W G H R R U U U U J H Q R / / ) #.<...) C O     ",
"              o M A M U Q G J U J H J J W W )  .` ] #... .4     ",
"                o 2 p U R / R J J V H U R W ! E E ~ _ {  .q     ",
"                    $ Y U H W J J Z S Y U T Y F E E T T [ q     ",
"                      u U c / U J V N Z U U U D D Y U R T 0     ",
"                      X V / T R Y M M V U U U U J Y Y U W ,     ",
"                        + M Y U J M V S J T H U U U Y W z       ",
"                          + j S A p p S Z T H U Y Y W G $       ",
"                            X 2 p M 9 s T R / R W W u           ",
"                                X # - + 8 Z U Z f ;             ",
"                                          o @                   ",
"                                                                ",
"                                                                "
};
